<?xml version="1.0" encoding="UTF-8"?>
<!DOCTYPE svg PUBLIC "-//W3C//DTD SVG 1.1//EN" "http://www.w3.org/Graphics/SVG/1.1/DTD/svg11.dtd">
<svg xmlns="http://www.w3.org/2000/svg" version="1.1" width="300px" height="297px" style="shape-rendering:geometricPrecision; text-rendering:geometricPrecision; image-rendering:optimizeQuality; fill-rule:evenodd; clip-rule:evenodd" xmlns:xlink="http://www.w3.org/1999/xlink">
<g><path style="opacity:1" fill="#05047c" d="M -0.5,-0.5 C 99.5,-0.5 199.5,-0.5 299.5,-0.5C 299.5,98.5 299.5,197.5 299.5,296.5C 199.5,296.5 99.5,296.5 -0.5,296.5C -0.5,197.5 -0.5,98.5 -0.5,-0.5 Z"/></g>
<g><path style="opacity:1" fill="#a2832e" d="M 290.5,288.5 C 290.5,195.167 290.5,101.833 290.5,8.5C 196.5,8.5 102.5,8.5 8.5,8.5C 8.5,101.833 8.5,195.167 8.5,288.5C 7.5006,195.001 7.16726,101.335 7.5,7.5C 102.167,7.5 196.833,7.5 291.5,7.5C 291.833,101.335 291.499,195.001 290.5,288.5 Z"/></g>
<g><path style="opacity:1" fill="#ffdb00" d="M 290.5,288.5 C 290.167,288.5 289.833,288.5 289.5,288.5C 289.5,195.5 289.5,102.5 289.5,9.5C 196.167,9.5 102.833,9.5 9.5,9.5C 9.5,102.5 9.5,195.5 9.5,288.5C 9.16667,288.5 8.83333,288.5 8.5,288.5C 8.5,195.167 8.5,101.833 8.5,8.5C 102.5,8.5 196.5,8.5 290.5,8.5C 290.5,101.833 290.5,195.167 290.5,288.5 Z"/></g>
<g><path style="opacity:1" fill="#fecc01" d="M 289.5,288.5 C 196.167,288.5 102.833,288.5 9.5,288.5C 9.5,195.5 9.5,102.5 9.5,9.5C 102.833,9.5 196.167,9.5 289.5,9.5C 289.5,102.5 289.5,195.5 289.5,288.5 Z"/></g>
<g><path style="opacity:1" fill="#02037c" d="M 60.5,11.5 C 97.1667,11.5 133.833,11.5 170.5,11.5C 170.168,69.6691 170.501,127.669 171.5,185.5C 170.005,206.538 177.005,224.038 192.5,238C 215.775,251.372 236.609,248.205 255,228.5C 260.436,220.295 263.603,211.295 264.5,201.5C 271.5,201.5 278.5,201.5 285.5,201.5C 285.5,228.5 285.5,255.5 285.5,282.5C 246.833,282.5 208.167,282.5 169.5,282.5C 164.092,252.256 146.425,233.423 116.5,226C 87.285,221.622 63.785,231.122 46,254.5C 41.0839,263.327 37.5839,272.66 35.5,282.5C 27.8333,282.5 20.1667,282.5 12.5,282.5C 12.5,252.833 12.5,223.167 12.5,193.5C 20.1667,193.5 27.8333,193.5 35.5,193.5C 56.36,195.053 76.6934,192.553 96.5,186C 134.904,167.694 150.404,137.527 143,95.5C 129.663,56.0049 102.163,34.6716 60.5,31.5C 60.5,24.8333 60.5,18.1667 60.5,11.5 Z"/></g>
<g><path style="opacity:1" fill="#5b4951" d="M 60.5,11.5 C 97.3296,10.5015 134.33,10.1682 171.5,10.5C 171.5,68.8333 171.5,127.167 171.5,185.5C 170.501,127.669 170.168,69.6691 170.5,11.5C 133.833,11.5 97.1667,11.5 60.5,11.5 Z"/></g>
<g><path style="opacity:1" fill="#ae8c2a" d="M 35.5,193.5 C 27.8333,193.5 20.1667,193.5 12.5,193.5C 12.5,223.167 12.5,252.833 12.5,282.5C 11.5019,252.671 11.1686,222.671 11.5,192.5C 19.6841,192.174 27.6841,192.508 35.5,193.5 Z"/></g>
<g><path style="opacity:1" fill="#302765" d="M 264.5,201.5 C 271.648,200.508 278.981,200.175 286.5,200.5C 286.831,228.005 286.498,255.338 285.5,282.5C 285.5,255.5 285.5,228.5 285.5,201.5C 278.5,201.5 271.5,201.5 264.5,201.5 Z"/></g>
</svg>
