<svg width="97" height="97" viewBox="0 0 97 97" fill="none" xmlns="http://www.w3.org/2000/svg">
<path d="M67.4384 5.34454C72.341 10.2476 73.8719 17.2492 72.0258 23.4599C65.8148 25.3063 58.8145 23.7772 53.9093 18.8731C49.0068 13.9689 47.4759 6.9684 49.3246 0.756897C55.5329 -1.08865 62.5358 0.441183 67.4384 5.34454Z" fill="#F5D21F"/>
<path d="M91.6555 18.8731C86.7521 23.7766 79.7507 25.3064 73.541 23.4608C71.6949 17.2491 73.2221 10.2486 78.1256 5.34459C83.0318 0.440306 90.0303 -1.08863 96.2429 0.757784C98.089 6.96863 96.559 13.97 91.6555 18.8731Z" fill="#0F4387"/>
<path d="M78.1255 43.0904C73.2249 38.1873 71.6948 31.1857 73.5382 24.9751C79.7507 23.1287 86.752 24.6576 91.6555 29.5616C96.5589 34.4659 98.089 41.4664 96.2428 47.6778C90.0303 49.5234 83.029 47.9936 78.1255 43.0904Z" fill="#F5D21F"/>
<path d="M53.9093 29.5617C58.8119 24.6584 65.8148 23.1285 72.0258 24.9741C73.8718 31.1856 72.341 38.1861 67.4384 43.0902C62.5332 47.9944 55.5329 49.5234 49.3219 47.6771C47.4759 41.4664 49.0068 34.4651 53.9093 29.5617Z" fill="#0F4387"/>
<path d="M67.4384 53.9095C72.341 58.8126 73.8719 65.8142 72.0258 72.0249C65.8148 73.8712 58.8145 72.3422 53.9093 67.438C49.0068 62.5339 47.4759 55.5333 49.3246 49.3218C55.5329 47.4763 62.5358 49.0061 67.4384 53.9095Z" fill="#F5D21F"/>
<path d="M91.6555 67.4381C86.7521 72.3415 79.7507 73.8713 73.541 72.0257C71.6949 65.814 73.2221 58.8135 78.1256 53.9095C83.0318 49.0052 90.0303 47.4763 96.2429 49.3227C98.089 55.5336 96.559 62.5349 91.6555 67.4381Z" fill="#0F4387"/>
<path d="M78.1255 91.6555C73.2249 86.7523 71.6948 79.7507 73.5382 73.5402C79.7507 71.6937 86.752 73.2227 91.6555 78.1267C96.5589 83.031 98.089 90.0315 96.2428 96.2429C90.0303 98.0884 83.029 96.5587 78.1255 91.6555Z" fill="#F5D21F"/>
<path d="M53.9093 78.1267C58.8119 73.2233 65.8148 71.6935 72.0258 73.539C73.8718 79.7505 72.341 86.751 67.4384 91.6552C62.5332 96.5593 55.5329 98.0884 49.3219 96.242C47.4759 90.0313 49.0068 83.03 53.9093 78.1267Z" fill="#0F4387"/>
<path d="M18.8735 5.34454C23.776 10.2476 25.3069 17.2492 23.4608 23.4599C17.2499 25.3063 10.2496 23.7772 5.34439 18.8731C0.441829 13.9689 -1.08905 6.9684 0.759672 0.756897C6.968 -1.08865 13.9709 0.441183 18.8735 5.34454Z" fill="#F5D21F"/>
<path d="M43.0906 18.8731C38.1871 23.7766 31.1858 25.3064 24.9761 23.4608C23.1299 17.2491 24.6572 10.2486 29.5606 5.34459C34.4669 0.440306 41.4654 -1.08863 47.6779 0.757784C49.5241 6.96863 47.994 13.97 43.0906 18.8731Z" fill="#0F4387"/>
<path d="M29.5605 43.0906C24.6599 38.1874 23.1298 31.1858 24.9732 24.9752C31.1857 23.1288 38.187 24.6577 43.0905 29.5618C47.9939 34.466 49.524 41.4665 47.6778 47.6779C41.4653 49.5235 34.464 47.9937 29.5605 43.0906Z" fill="#F5D21F"/>
<path d="M5.34438 29.5618C10.2469 24.6585 17.2499 23.1286 23.4608 24.9742C25.3069 31.1857 23.776 38.1862 18.8734 43.0904C13.9682 47.9945 6.96797 49.5236 0.756999 47.6772C-1.08908 41.4665 0.44182 34.4652 5.34438 29.5618Z" fill="#0F4387"/>
<path d="M18.8735 53.9095C23.776 58.8126 25.3069 65.8142 23.4608 72.0249C17.2499 73.8712 10.2496 72.3422 5.34439 67.438C0.441829 62.5339 -1.08905 55.5333 0.759672 49.3218C6.968 47.4763 13.9709 49.0061 18.8735 53.9095Z" fill="#F5D21F"/>
<path d="M43.0906 67.4381C38.1871 72.3415 31.1858 73.8713 24.9761 72.0257C23.1299 65.814 24.6572 58.8135 29.5606 53.9095C34.4669 49.0052 41.4654 47.4763 47.6779 49.3227C49.5241 55.5336 47.994 62.5349 43.0906 67.4381Z" fill="#0F4387"/>
<path d="M29.5605 91.6555C24.6599 86.7523 23.1298 79.7507 24.9732 73.5402C31.1857 71.6937 38.187 73.2227 43.0905 78.1267C47.9939 83.031 49.524 90.0315 47.6778 96.2429C41.4653 98.0884 34.464 96.5587 29.5605 91.6555Z" fill="#F5D21F"/>
<path d="M5.34438 78.1268C10.2469 73.2234 17.2499 71.6936 23.4608 73.5391C25.3069 79.7506 23.776 86.7512 18.8734 91.6553C13.9682 96.5595 6.96797 98.0885 0.756999 96.2422C-1.08908 90.0315 0.44182 83.0301 5.34438 78.1268Z" fill="#0F4387"/>
</svg>
