<svg width="129" height="555" viewBox="0 0 129 555" fill="none" xmlns="http://www.w3.org/2000/svg">
<path fill-rule="evenodd" clip-rule="evenodd" d="M103.693 287.654L103.693 408.51L50.9784 366.874L50.9784 246.017L103.693 287.654Z" fill="#F5D21F"/>
<path fill-rule="evenodd" clip-rule="evenodd" d="M129.408 41.6363L129.408 294.923L76.6935 253.286L76.6935 0L129.408 41.6363Z" fill="#0F4387"/>
<path fill-rule="evenodd" clip-rule="evenodd" d="M76.693 145.821L76.693 554.357L79.3893 554.357L79.3893 145.821L76.693 145.821Z" fill="#0F4387"/>
<path fill-rule="evenodd" clip-rule="evenodd" d="M50.9817 55.822L50.9817 417.733L53.6773 417.733L53.6774 55.822L50.9817 55.822Z" fill="#F5D21F"/>
<path fill-rule="evenodd" clip-rule="evenodd" d="M15.75 129.843L15.75 147.199L-7.58715e-07 134.76L0 117.402L15.75 129.843Z" fill="#0F4387"/>
<path fill-rule="evenodd" clip-rule="evenodd" d="M15.75 168.414L15.75 185.77L-7.58747e-07 173.331L0 155.973L15.75 168.414Z" fill="#0F4387"/>
<path fill-rule="evenodd" clip-rule="evenodd" d="M15.75 206.986L15.75 224.342L-7.58747e-07 211.902L0 194.544L15.75 206.986Z" fill="#0F4387"/>
<path fill-rule="evenodd" clip-rule="evenodd" d="M15.75 245.557L15.75 262.913L-7.58765e-07 250.474L0 233.115L15.75 245.557Z" fill="#0F4387"/>
<path fill-rule="evenodd" clip-rule="evenodd" d="M15.75 284.128L15.75 301.485L-7.58747e-07 289.045L0 271.687L15.75 284.128Z" fill="#0F4387"/>
</svg>
