<?xml version="1.0" encoding="UTF-8"?>
<!DOCTYPE svg PUBLIC "-//W3C//DTD SVG 1.1//EN" "http://www.w3.org/Graphics/SVG/1.1/DTD/svg11.dtd">
<svg xmlns="http://www.w3.org/2000/svg" version="1.1" width="713px" height="682px" style="shape-rendering:geometricPrecision; text-rendering:geometricPrecision; image-rendering:optimizeQuality; fill-rule:evenodd; clip-rule:evenodd" xmlns:xlink="http://www.w3.org/1999/xlink">
<g><path style="opacity:1" fill="#f8f8f8" d="M -0.5,-0.5 C 237.167,-0.5 474.833,-0.5 712.5,-0.5C 712.5,221.833 712.5,444.167 712.5,666.5C 474.833,666.5 237.167,666.5 -0.5,666.5C -0.5,652.833 -0.5,639.167 -0.5,625.5C 0.314913,626.429 1.14825,627.429 2,628.5C 5.83333,619.333 12.3333,612.833 21.5,609C 12.3333,605.167 5.83333,598.667 2,589.5C 1.14825,590.571 0.314913,591.571 -0.5,592.5C -0.5,394.833 -0.5,197.167 -0.5,-0.5 Z"/></g>
<g><path style="opacity:1" fill="#1a488a" d="M 488.5,29.5 C 509.469,28.6242 516.302,37.9575 509,57.5C 502.529,63.6488 495.029,65.1488 486.5,62C 473.952,50.4167 474.619,39.5834 488.5,29.5 Z"/></g>
<g><path style="opacity:1" fill="#f5d32e" d="M 623.5,33.5 C 626.729,38.729 631.062,43.0623 636.5,46.5C 631.105,49.5606 627.105,53.894 624.5,59.5C 621.78,53.4465 617.447,49.1131 611.5,46.5C 617.612,44.0571 621.612,39.7238 623.5,33.5 Z"/></g>
<g><path style="opacity:1" fill="#1b4889" d="M 76.5,61.5 C 73.5,61.5 70.5,61.5 67.5,61.5C 67.5,57.8333 67.5,54.1667 67.5,50.5C 71.6569,40.8245 78.8236,37.1579 89,39.5C 90.7408,50.3662 86.5741,57.6995 76.5,61.5 Z"/></g>
<g><path style="opacity:1" fill="#f4d226" d="M 112.5,51.5 C 112.5,54.5 112.5,57.5 112.5,60.5C 109.167,60.5 105.833,60.5 102.5,60.5C 92.6239,56.5822 88.9572,49.4156 91.5,39C 101.933,37.5452 108.933,41.7119 112.5,51.5 Z"/></g>
<g><path style="opacity:1" fill="#1d498a" d="M 122.5,61.5 C 119.552,61.7771 116.719,61.4438 114,60.5C 113.502,57.5184 113.335,54.5184 113.5,51.5C 117.54,41.063 125.04,37.063 136,39.5C 137.312,50.5626 132.812,57.896 122.5,61.5 Z"/></g>
<g><path style="opacity:1" fill="#eef0f4" d="M 492.5,37.5 C 502.838,38.1983 506.005,43.1983 502,52.5C 491.474,57.6535 486.474,54.3202 487,42.5C 488.73,40.5981 490.563,38.9314 492.5,37.5 Z"/></g>
<g><path style="opacity:1" fill="#f5d42e" d="M 667.5,33.5 C 670.109,37.1362 673.109,40.6362 676.5,44C 683.167,45.6667 683.167,47.3333 676.5,49C 672.984,51.8709 670.317,55.3709 668.5,59.5C 665.78,53.4465 661.447,49.1131 655.5,46.5C 661.604,44.0643 665.604,39.7309 667.5,33.5 Z"/></g>
<g><path style="opacity:1" fill="#f4d228" d="M 66.5,50.5 C 66.756,54.2693 66.4227,57.9359 65.5,61.5C 62.8333,61.5 60.1667,61.5 57.5,61.5C 47.408,57.6595 43.2413,50.3261 45,39.5C 55.0997,37.4664 62.2664,41.1331 66.5,50.5 Z"/></g>
<g><path style="opacity:1" fill="#d8c75c" d="M 112.5,51.5 C 112.833,51.5 113.167,51.5 113.5,51.5C 113.335,54.5184 113.502,57.5184 114,60.5C 116.719,61.4438 119.552,61.7771 122.5,61.5C 123.167,61.5 123.5,61.8333 123.5,62.5C 120.167,62.5 116.833,62.5 113.5,62.5C 109.936,61.5773 106.269,61.244 102.5,61.5C 102.5,61.1667 102.5,60.8333 102.5,60.5C 105.833,60.5 109.167,60.5 112.5,60.5C 112.5,57.5 112.5,54.5 112.5,51.5 Z"/></g>
<g><path style="opacity:1" fill="#1d4889" d="M 57.5,61.5 C 60.1667,61.5 62.8333,61.5 65.5,61.5C 66.4137,64.728 66.7471,68.0613 66.5,71.5C 65.3599,73.7802 64.1932,76.1136 63,78.5C 60.0123,80.3991 57.1789,82.3991 54.5,84.5C 51.5,84.5 48.5,84.5 45.5,84.5C 42.8861,73.1308 46.8861,65.4641 57.5,61.5 Z"/></g>
<g><path style="opacity:1" fill="#1c4889" d="M 102.5,61.5 C 106.269,61.244 109.936,61.5773 113.5,62.5C 113.5,65.1667 113.5,67.8333 113.5,70.5C 111.662,76.177 107.995,80.177 102.5,82.5C 98.5662,83.3597 94.5662,83.693 90.5,83.5C 90.5,80.8333 90.5,78.1667 90.5,75.5C 91.9758,68.6894 95.9758,64.0228 102.5,61.5 Z"/></g>
<g><path style="opacity:1" fill="#a8ae8e" d="M 66.5,50.5 C 66.8333,50.5 67.1667,50.5 67.5,50.5C 67.5,54.1667 67.5,57.8333 67.5,61.5C 67.5,64.8333 67.5,68.1667 67.5,71.5C 67.1667,71.5 66.8333,71.5 66.5,71.5C 66.7471,68.0613 66.4137,64.728 65.5,61.5C 66.4227,57.9359 66.756,54.2693 66.5,50.5 Z"/></g>
<g><path style="opacity:1" fill="#f4d22b" d="M 113.5,62.5 C 116.833,62.5 120.167,62.5 123.5,62.5C 134.714,66.2596 138.38,73.593 134.5,84.5C 131.167,84.5 127.833,84.5 124.5,84.5C 118.94,81.4081 115.273,76.7415 113.5,70.5C 113.5,67.8333 113.5,65.1667 113.5,62.5 Z"/></g>
<g><path style="opacity:1" fill="#f3d22c" d="M 67.5,61.5 C 70.5,61.5 73.5,61.5 76.5,61.5C 83.5768,63.5781 87.9101,68.2448 89.5,75.5C 89.5,78.5 89.5,81.5 89.5,84.5C 85.8333,84.5 82.1667,84.5 78.5,84.5C 73.0755,81.7355 69.4089,77.4022 67.5,71.5C 67.5,68.1667 67.5,64.8333 67.5,61.5 Z"/></g>
<g><path style="opacity:1" fill="#f3f4f3" d="M 66.5,71.5 C 66.8333,71.5 67.1667,71.5 67.5,71.5C 69.4089,77.4022 73.0755,81.7355 78.5,84.5C 78.5,84.8333 78.5,85.1667 78.5,85.5C 73.1887,87.478 69.522,91.1446 67.5,96.5C 67.1667,96.5 66.8333,96.5 66.5,96.5C 64.1885,90.8552 60.1885,86.8552 54.5,84.5C 57.1789,82.3991 60.0123,80.3991 63,78.5C 64.1932,76.1136 65.3599,73.7802 66.5,71.5 Z"/></g>
<g><path style="opacity:1" fill="#f5f5f4" d="M 113.5,70.5 C 115.273,76.7415 118.94,81.4081 124.5,84.5C 119.213,87.3724 115.547,91.7057 113.5,97.5C 110.887,91.887 106.887,87.5537 101.5,84.5C 101.833,83.8333 102.167,83.1667 102.5,82.5C 107.995,80.177 111.662,76.177 113.5,70.5 Z"/></g>
<g><path style="opacity:1" fill="#9da9a9" d="M 89.5,75.5 C 89.8333,75.5 90.1667,75.5 90.5,75.5C 90.5,78.1667 90.5,80.8333 90.5,83.5C 94.5662,83.693 98.5662,83.3597 102.5,82.5C 102.167,83.1667 101.833,83.8333 101.5,84.5C 97.8333,84.5 94.1667,84.5 90.5,84.5C 90.5,87.1667 90.5,89.8333 90.5,92.5C 90.1667,92.5 89.8333,92.5 89.5,92.5C 89.5,90.1667 89.5,87.8333 89.5,85.5C 85.8333,85.5 82.1667,85.5 78.5,85.5C 78.5,85.1667 78.5,84.8333 78.5,84.5C 82.1667,84.5 85.8333,84.5 89.5,84.5C 89.5,81.5 89.5,78.5 89.5,75.5 Z"/></g>
<g><path style="opacity:1" fill="#194789" d="M 78.5,85.5 C 82.1667,85.5 85.8333,85.5 89.5,85.5C 89.5,87.8333 89.5,90.1667 89.5,92.5C 88.3224,100.338 83.9891,105.338 76.5,107.5C 73.8333,107.5 71.1667,107.5 68.5,107.5C 67.5773,103.936 67.244,100.269 67.5,96.5C 69.522,91.1446 73.1887,87.478 78.5,85.5 Z"/></g>
<g><path style="opacity:1" fill="#1d498a" d="M 124.5,84.5 C 127.833,84.5 131.167,84.5 134.5,84.5C 137.889,92.9619 135.555,99.7952 127.5,105C 125.975,106.009 124.308,106.509 122.5,106.5C 118.988,107.055 115.988,106.388 113.5,104.5C 113.5,102.167 113.5,99.8333 113.5,97.5C 115.547,91.7057 119.213,87.3724 124.5,84.5 Z"/></g>
<g><path style="opacity:1" fill="#f4d22b" d="M 45.5,84.5 C 48.5,84.5 51.5,84.5 54.5,84.5C 60.1885,86.8552 64.1885,90.8552 66.5,96.5C 66.815,100.371 66.4816,104.038 65.5,107.5C 62.5,107.5 59.5,107.5 56.5,107.5C 46.6792,102.856 43.0125,95.1897 45.5,84.5 Z"/></g>
<g><path style="opacity:1" fill="#f3d22a" d="M 101.5,84.5 C 106.887,87.5537 110.887,91.887 113.5,97.5C 113.5,99.8333 113.5,102.167 113.5,104.5C 112.596,105.209 112.263,106.209 112.5,107.5C 109.5,107.5 106.5,107.5 103.5,107.5C 96.1693,105.213 91.836,100.213 90.5,92.5C 90.5,89.8333 90.5,87.1667 90.5,84.5C 94.1667,84.5 97.8333,84.5 101.5,84.5 Z"/></g>
<g><path style="opacity:1" fill="#6d8bb4" d="M 314.5,105.5 C 305.085,105.208 295.752,105.875 286.5,107.5C 288.811,105.932 291.478,105.098 294.5,105C 301.346,104.179 308.013,104.346 314.5,105.5 Z"/></g>
<g><path style="opacity:1" fill="#114287" d="M 314.5,105.5 C 323.912,105.936 332.912,108.103 341.5,112C 358.187,121.366 374.853,130.7 391.5,140C 414.219,147.555 437.553,151.722 461.5,152.5C 473.644,154.012 485.977,155.012 498.5,155.5C 519.052,156.74 538.718,161.573 557.5,170C 578.802,178.968 594.635,193.801 605,214.5C 608.949,225.528 610.282,236.861 609,248.5C 605.846,266.157 599.513,282.491 590,297.5C 582.15,308.529 573.816,319.196 565,329.5C 551.685,348.488 550.018,368.488 560,389.5C 563.205,396.691 567.205,403.358 572,409.5C 588.593,426.761 606.426,442.595 625.5,457C 654.946,483.268 654.613,509.268 624.5,535C 604.696,547.886 583.029,556.386 559.5,560.5C 558.5,560.5 557.5,560.5 556.5,560.5C 556.5,548.167 556.5,535.833 556.5,523.5C 555.167,523.5 553.833,523.5 552.5,523.5C 552.665,519.818 552.499,516.152 552,512.5C 550.833,511.333 549.667,510.167 548.5,509C 540.132,508.26 531.798,508.426 523.5,509.5C 523.5,507.833 523.5,506.167 523.5,504.5C 521.052,503.527 518.385,503.194 515.5,503.5C 515.833,428.998 515.499,354.665 514.5,280.5C 494.157,260.998 473.824,241.498 453.5,222C 452.667,221.833 451.833,221.667 451,221.5C 396.011,240.105 341.511,259.771 287.5,280.5C 287.167,280.5 286.833,280.5 286.5,280.5C 285.501,349.665 285.167,418.998 285.5,488.5C 283.901,488.232 282.568,488.566 281.5,489.5C 272.998,492.494 269.665,498.494 271.5,507.5C 269.181,506.833 266.847,506.666 264.5,507C 263.594,508.699 263.261,510.533 263.5,512.5C 259.238,511.242 254.904,510.742 250.5,511C 250,511.5 249.5,512 249,512.5C 248.501,516.152 248.335,519.818 248.5,523.5C 244.833,523.5 241.167,523.5 237.5,523.5C 237.5,528.833 237.5,534.167 237.5,539.5C 237.5,549.5 237.5,559.5 237.5,569.5C 323.167,570.167 408.833,570.833 494.5,571.5C 431.436,579.503 368.103,582.503 304.5,580.5C 283.338,578.799 262.005,577.466 240.5,576.5C 204.939,573.638 169.606,569.138 134.5,563C 104.689,555.033 80.1888,539.2 61,515.5C 46.1544,494.777 42.1544,472.11 49,447.5C 55.2605,434.9 64.0938,424.4 75.5,416C 94.0026,404.583 112.336,392.916 130.5,381C 139.957,373.552 147.124,364.386 152,353.5C 153.562,349.986 154.395,346.319 154.5,342.5C 157.368,334.705 157.034,327.038 153.5,319.5C 151.945,316.06 150.112,312.727 148,309.5C 121.126,291.927 119.626,272.427 143.5,251C 146.167,249.333 148.833,247.667 151.5,246C 178.961,233.166 206.628,220.5 234.5,208C 246.742,202.414 257.242,194.581 266,184.5C 272.034,176.073 274.034,166.74 272,156.5C 270.519,149.221 269.352,141.888 268.5,134.5C 268.21,128.678 268.877,123.012 270.5,117.5C 274.196,111.647 279.53,108.313 286.5,107.5C 295.752,105.875 305.085,105.208 314.5,105.5 Z"/></g>
<g><path style="opacity:1" fill="#174688" d="M 56.5,107.5 C 59.5,107.5 62.5,107.5 65.5,107.5C 66.4137,110.728 66.7471,114.061 66.5,117.5C 62.936,127.287 55.936,131.454 45.5,130C 43.3583,119.564 47.0249,112.064 56.5,107.5 Z"/></g>
<g><path style="opacity:1" fill="#f4d227" d="M 68.5,107.5 C 71.1667,107.5 73.8333,107.5 76.5,107.5C 87.1279,111.083 91.2946,118.416 89,129.5C 78.4298,131.631 71.2632,127.631 67.5,117.5C 67.2529,114.061 67.5863,110.728 68.5,107.5 Z"/></g>
<g><path style="opacity:1" fill="#164688" d="M 102.5,108.5 C 105.833,108.5 109.167,108.5 112.5,108.5C 112.5,111.5 112.5,114.5 112.5,117.5C 108.957,127.278 101.957,131.445 91.5,130C 88.4206,119.325 92.0872,112.158 102.5,108.5 Z"/></g>
<g><path style="opacity:1" fill="#f5d227" d="M 122.5,107.5 C 132.568,110.978 137.068,117.978 136,128.5C 125.073,131.954 117.573,128.287 113.5,117.5C 113.335,114.482 113.502,111.482 114,108.5C 116.719,107.556 119.552,107.223 122.5,107.5 Z"/></g>
<g><path style="opacity:1" fill="#a2a989" d="M 66.5,96.5 C 66.8333,96.5 67.1667,96.5 67.5,96.5C 67.244,100.269 67.5773,103.936 68.5,107.5C 67.5863,110.728 67.2529,114.061 67.5,117.5C 67.1667,117.5 66.8333,117.5 66.5,117.5C 66.7471,114.061 66.4137,110.728 65.5,107.5C 66.4816,104.038 66.815,100.371 66.5,96.5 Z"/></g>
<g><path style="opacity:1" fill="#72899e" d="M 113.5,104.5 C 115.988,106.388 118.988,107.055 122.5,106.5C 122.5,106.833 122.5,107.167 122.5,107.5C 119.552,107.223 116.719,107.556 114,108.5C 113.502,111.482 113.335,114.482 113.5,117.5C 113.167,117.5 112.833,117.5 112.5,117.5C 112.5,114.5 112.5,111.5 112.5,108.5C 109.167,108.5 105.833,108.5 102.5,108.5C 102.5,107.833 102.833,107.5 103.5,107.5C 106.5,107.5 109.5,107.5 112.5,107.5C 112.263,106.209 112.596,105.209 113.5,104.5 Z"/></g>
<g><path style="opacity:1" fill="#7590b7" d="M 270.5,117.5 C 268.877,123.012 268.21,128.678 268.5,134.5C 267.353,130.354 267.186,126.02 268,121.5C 268.608,119.934 269.442,118.6 270.5,117.5 Z"/></g>
<g><path style="opacity:1" fill="#9db0cb" d="M 461.5,152.5 C 472.187,152.52 482.854,153.02 493.5,154C 495.382,154.198 497.048,154.698 498.5,155.5C 485.977,155.012 473.644,154.012 461.5,152.5 Z"/></g>
<g><path style="opacity:1" fill="#f5d538" d="M 229.5,153.5 C 235.158,152.679 236.825,154.846 234.5,160C 228.741,161.139 227.074,158.972 229.5,153.5 Z"/></g>
<g><path style="opacity:1" fill="#f5d538" d="M 209.5,153.5 C 215.158,152.679 216.825,154.846 214.5,160C 208.741,161.139 207.074,158.972 209.5,153.5 Z"/></g>
<g><path style="opacity:1" fill="#f5d534" d="M 169.5,153.5 C 174.006,152.527 176.172,154.194 176,158.5C 172.813,161.411 170.313,160.911 168.5,157C 168.989,155.862 169.322,154.695 169.5,153.5 Z"/></g>
<g><path style="opacity:1" fill="#f5d42f" d="M 190.5,153.5 C 196.158,152.679 197.825,154.846 195.5,160C 190.262,160.594 188.595,158.427 190.5,153.5 Z"/></g>
<g><path style="opacity:1" fill="#f5d32a" d="M 95.5,161.5 C 99.6468,170.479 106.313,176.979 115.5,181C 105.936,184.898 99.4362,191.731 96,201.5C 91.7448,192.412 85.2448,185.412 76.5,180.5C 85.848,177.152 92.1814,170.819 95.5,161.5 Z"/></g>
<g><path style="opacity:1" fill="#f5d430" d="M 229.5,176.5 C 234.895,175.555 236.561,177.555 234.5,182.5C 229.303,183.63 227.636,181.63 229.5,176.5 Z"/></g>
<g><path style="opacity:1" fill="#f6d63d" d="M 170.5,175.5 C 172.981,175.323 174.814,176.323 176,178.5C 176.339,182.487 174.506,183.987 170.5,183C 167.914,180.506 167.914,178.006 170.5,175.5 Z"/></g>
<g><path style="opacity:1" fill="#f5d431" d="M 190.5,176.5 C 196.158,175.679 197.825,177.846 195.5,183C 190.262,183.594 188.595,181.427 190.5,176.5 Z"/></g>
<g><path style="opacity:1" fill="#f5d434" d="M 209.5,176.5 C 215.158,175.679 216.825,177.846 214.5,183C 209.262,183.594 207.595,181.427 209.5,176.5 Z"/></g>
<g><path style="opacity:1" fill="#f5d433" d="M 210.5,197.5 C 215.181,197.876 216.515,200.209 214.5,204.5C 211.208,206.177 209.208,205.177 208.5,201.5C 208.752,199.927 209.418,198.594 210.5,197.5 Z"/></g>
<g><path style="opacity:1" fill="#f5d42e" d="M 230.5,197.5 C 233.352,197.352 235.019,198.686 235.5,201.5C 233.167,206.833 230.833,206.833 228.5,201.5C 228.752,199.927 229.418,198.594 230.5,197.5 Z"/></g>
<g><path style="opacity:1" fill="#f5d537" d="M 191.5,197.5 C 196.262,198.092 197.596,200.592 195.5,205C 189.403,205.147 188.07,202.647 191.5,197.5 Z"/></g>
<g><path style="opacity:1" fill="#f6d63d" d="M 170.5,197.5 C 176.488,197.664 177.821,200.164 174.5,205C 168.403,205.147 167.07,202.647 170.5,197.5 Z"/></g>
<g><path style="opacity:1" fill="#fafafa" d="M 514.5,280.5 C 514.5,355.167 514.5,429.833 514.5,504.5C 514.5,510.833 514.5,517.167 514.5,523.5C 510.167,523.5 505.833,523.5 501.5,523.5C 501.5,491.5 501.5,459.5 501.5,427.5C 502.479,424.375 502.813,421.042 502.5,417.5C 434.5,417.5 366.5,417.5 298.5,417.5C 298.5,452.5 298.5,487.5 298.5,522.5C 294.833,522.5 291.167,522.5 287.5,522.5C 287.5,441.833 287.5,361.167 287.5,280.5C 341.511,259.771 396.011,240.105 451,221.5C 451.833,221.667 452.667,221.833 453.5,222C 473.824,241.498 494.157,260.998 514.5,280.5 Z"/></g>
<g><path style="opacity:1" fill="#36373c" d="M 501.5,356.5 C 500.5,356.5 499.5,356.5 498.5,356.5C 498.5,355.167 498.5,353.833 498.5,352.5C 497.167,352.5 495.833,352.5 494.5,352.5C 494.5,351.5 494.5,350.5 494.5,349.5C 495.833,349.5 497.167,349.5 498.5,349.5C 498.5,341.833 498.5,334.167 498.5,326.5C 492.167,326.5 485.833,326.5 479.5,326.5C 468.167,326.5 456.833,326.5 445.5,326.5C 439.167,326.5 432.833,326.5 426.5,326.5C 426.5,334.167 426.5,341.833 426.5,349.5C 432.833,349.5 439.167,349.5 445.5,349.5C 445.5,350.5 445.5,351.5 445.5,352.5C 439.167,352.5 432.833,352.5 426.5,352.5C 426.5,353.833 426.5,355.167 426.5,356.5C 425.5,356.5 424.5,356.5 423.5,356.5C 423.5,346.833 423.5,337.167 423.5,327.5C 407.675,326.504 391.675,326.17 375.5,326.5C 375.5,336.5 375.5,346.5 375.5,356.5C 374.5,356.5 373.5,356.5 372.5,356.5C 372.5,330.5 372.5,304.5 372.5,278.5C 372.5,273.833 372.5,269.167 372.5,264.5C 383.245,259.742 394.245,255.242 405.5,251C 419.113,247.129 432.446,242.463 445.5,237C 447.167,236.333 448.833,236.333 450.5,237C 467.28,253.111 484.114,269.278 501,285.5C 501.5,309.164 501.667,332.831 501.5,356.5 Z"/></g>
<g><path style="opacity:1" fill="#60869b" d="M 455.5,247.5 C 454.761,247.369 454.094,247.536 453.5,248C 452.044,249.745 450.711,251.578 449.5,253.5C 448.312,252.16 446.812,251.493 445,251.5C 439.399,253.201 433.899,255.201 428.5,257.5C 427.501,271.15 427.167,284.817 427.5,298.5C 447.833,298.5 468.167,298.5 488.5,298.5C 488.663,296.143 488.497,293.81 488,291.5C 485.317,288.984 482.817,286.317 480.5,283.5C 482.219,280.677 483.553,277.677 484.5,274.5C 489.131,278.63 493.631,282.963 498,287.5C 498.499,291.486 498.666,295.486 498.5,299.5C 474.5,299.5 450.5,299.5 426.5,299.5C 426.333,282.163 426.5,264.83 427,247.5C 433.446,244.716 440.113,242.383 447,240.5C 450.561,241.89 453.395,244.223 455.5,247.5 Z"/></g>
<g><path style="opacity:1" fill="#638ca2" d="M 455.5,247.5 C 465.16,255.827 474.494,264.494 483.5,273.5C 481.526,275.428 480.026,277.761 479,280.5C 478.282,281.451 477.449,281.617 476.5,281C 468.721,273.221 460.887,265.387 453,257.5C 452.913,253.985 453.746,250.652 455.5,247.5 Z"/></g>
<g><path style="opacity:1" fill="#638aa1" d="M 423.5,259.5 C 418.113,261.297 412.779,263.297 407.5,265.5C 407.711,261.853 409.044,258.353 411.5,255C 410.207,254.51 408.873,254.343 407.5,254.5C 412.403,251.729 417.736,250.063 423.5,249.5C 423.5,252.833 423.5,256.167 423.5,259.5 Z"/></g>
<g><path style="opacity:1" fill="#62899f" d="M 407.5,254.5 C 405.918,258.832 403.918,262.999 401.5,267C 393.145,269.848 384.812,272.681 376.5,275.5C 376.5,283.167 376.5,290.833 376.5,298.5C 392.167,298.5 407.833,298.5 423.5,298.5C 407.675,299.496 391.675,299.83 375.5,299.5C 375.333,288.162 375.5,276.828 376,265.5C 386.559,262.067 397.059,258.4 407.5,254.5 Z"/></g>
<g><path style="opacity:1" fill="#74a5c0" d="M 455.5,247.5 C 453.746,250.652 452.913,253.985 453,257.5C 460.887,265.387 468.721,273.221 476.5,281C 477.449,281.617 478.282,281.451 479,280.5C 480.026,277.761 481.526,275.428 483.5,273.5C 484.167,273.5 484.5,273.833 484.5,274.5C 483.553,277.677 482.219,280.677 480.5,283.5C 482.817,286.317 485.317,288.984 488,291.5C 488.497,293.81 488.663,296.143 488.5,298.5C 468.167,298.5 447.833,298.5 427.5,298.5C 427.167,284.817 427.501,271.15 428.5,257.5C 433.899,255.201 439.399,253.201 445,251.5C 446.812,251.493 448.312,252.16 449.5,253.5C 450.711,251.578 452.044,249.745 453.5,248C 454.094,247.536 454.761,247.369 455.5,247.5 Z"/></g>
<g><path style="opacity:1" fill="#74a4bf" d="M 407.5,254.5 C 408.873,254.343 410.207,254.51 411.5,255C 409.044,258.353 407.711,261.853 407.5,265.5C 412.779,263.297 418.113,261.297 423.5,259.5C 423.5,272.5 423.5,285.5 423.5,298.5C 407.833,298.5 392.167,298.5 376.5,298.5C 376.5,290.833 376.5,283.167 376.5,275.5C 384.812,272.681 393.145,269.848 401.5,267C 403.918,262.999 405.918,258.832 407.5,254.5 Z"/></g>
<g><path style="opacity:1" fill="#83584f" d="M 372.5,264.5 C 372.5,269.167 372.5,273.833 372.5,278.5C 370.801,278.34 369.134,278.506 367.5,279C 349.42,285.973 331.087,292.473 312.5,298.5C 312.5,304.833 312.5,311.167 312.5,317.5C 310.901,317.232 309.568,317.566 308.5,318.5C 308.5,324.167 308.5,329.833 308.5,335.5C 309.833,335.5 311.167,335.5 312.5,335.5C 312.5,353.5 312.5,371.5 312.5,389.5C 308.167,389.5 303.833,389.5 299.5,389.5C 299.333,356.165 299.5,322.832 300,289.5C 319.582,282.748 339.082,275.582 358.5,268C 363.108,266.515 367.774,265.348 372.5,264.5 Z"/></g>
<g><path style="opacity:1" fill="#5277a7" d="M 286.5,280.5 C 286.5,350.167 286.5,419.833 286.5,489.5C 286.167,489.5 285.833,489.5 285.5,489.5C 284.167,489.5 282.833,489.5 281.5,489.5C 282.568,488.566 283.901,488.232 285.5,488.5C 285.167,418.998 285.501,349.665 286.5,280.5 Z"/></g>
<g><path style="opacity:1" fill="#6c8cb3" d="M 514.5,280.5 C 515.499,354.665 515.833,428.998 515.5,503.5C 518.385,503.194 521.052,503.527 523.5,504.5C 520.833,504.5 518.167,504.5 515.5,504.5C 515.167,504.5 514.833,504.5 514.5,504.5C 514.5,429.833 514.5,355.167 514.5,280.5 Z"/></g>
<g><path style="opacity:1" fill="#72a2bd" d="M 375.5,302.5 C 391.5,302.5 407.5,302.5 423.5,302.5C 423.5,309.5 423.5,316.5 423.5,323.5C 407.5,323.5 391.5,323.5 375.5,323.5C 375.5,316.5 375.5,309.5 375.5,302.5 Z"/></g>
<g><path style="opacity:1" fill="#638aa1" d="M 426.5,302.5 C 450.5,302.5 474.5,302.5 498.5,302.5C 498.5,309.5 498.5,316.5 498.5,323.5C 474.5,323.5 450.5,323.5 426.5,323.5C 426.5,316.5 426.5,309.5 426.5,302.5 Z"/></g>
<g><path style="opacity:1" fill="#73a4c0" d="M 427.5,303.5 C 447.833,303.5 468.167,303.5 488.5,303.5C 488.5,309.833 488.5,316.167 488.5,322.5C 468.167,322.5 447.833,322.5 427.5,322.5C 427.5,316.167 427.5,309.833 427.5,303.5 Z"/></g>
<g><path style="opacity:1" fill="#bbc2c6" d="M 308.5,318.5 C 309.833,318.5 311.167,318.5 312.5,318.5C 328.466,320.485 344.799,321.152 361.5,320.5C 361.817,324.702 361.483,328.702 360.5,332.5C 344.307,332.838 328.307,333.838 312.5,335.5C 311.167,335.5 309.833,335.5 308.5,335.5C 308.5,329.833 308.5,324.167 308.5,318.5 Z"/></g>
<g><path style="opacity:1" fill="#f6f4f3" d="M 312.5,318.5 C 329.5,318.5 346.5,318.5 363.5,318.5C 363.5,324.167 363.5,329.833 363.5,335.5C 346.5,335.5 329.5,335.5 312.5,335.5C 328.307,333.838 344.307,332.838 360.5,332.5C 361.483,328.702 361.817,324.702 361.5,320.5C 344.799,321.152 328.466,320.485 312.5,318.5 Z"/></g>
<g><path style="opacity:1" fill="#985f53" d="M 372.5,278.5 C 372.5,304.5 372.5,330.5 372.5,356.5C 373.5,356.5 374.5,356.5 375.5,356.5C 374.5,357.167 373.5,357.833 372.5,358.5C 372.5,358.833 372.5,359.167 372.5,359.5C 372.5,363.167 372.5,366.833 372.5,370.5C 372.5,377.167 372.5,383.833 372.5,390.5C 347.994,390.831 323.661,390.498 299.5,389.5C 303.833,389.5 308.167,389.5 312.5,389.5C 312.5,371.5 312.5,353.5 312.5,335.5C 329.5,335.5 346.5,335.5 363.5,335.5C 363.5,329.833 363.5,324.167 363.5,318.5C 346.5,318.5 329.5,318.5 312.5,318.5C 311.167,318.5 309.833,318.5 308.5,318.5C 309.568,317.566 310.901,317.232 312.5,317.5C 312.5,311.167 312.5,304.833 312.5,298.5C 331.087,292.473 349.42,285.973 367.5,279C 369.134,278.506 370.801,278.34 372.5,278.5 Z"/></g>
<g><path style="opacity:1" fill="#74a4bf" d="M 336.5,321.5 C 336.5,325.167 336.5,328.833 336.5,332.5C 328.167,332.5 319.833,332.5 311.5,332.5C 311.5,328.833 311.5,325.167 311.5,321.5C 319.833,321.5 328.167,321.5 336.5,321.5 Z"/></g>
<g><path style="opacity:1" fill="#34454e" d="M 336.5,321.5 C 344.5,321.5 352.5,321.5 360.5,321.5C 360.5,325.167 360.5,328.833 360.5,332.5C 352.5,332.5 344.5,332.5 336.5,332.5C 336.5,328.833 336.5,325.167 336.5,321.5 Z"/></g>
<g><path style="opacity:1" fill="#597688" d="M 423.5,327.5 C 407.833,327.5 392.167,327.5 376.5,327.5C 376.5,337.167 376.5,346.833 376.5,356.5C 376.167,356.5 375.833,356.5 375.5,356.5C 375.5,346.5 375.5,336.5 375.5,326.5C 391.675,326.17 407.675,326.504 423.5,327.5 Z"/></g>
<g><path style="opacity:1" fill="#494135" d="M 445.5,326.5 C 456.833,326.5 468.167,326.5 479.5,326.5C 479.5,334.167 479.5,341.833 479.5,349.5C 483.555,349.176 487.555,349.509 491.5,350.5C 491.291,351.086 490.957,351.586 490.5,352C 486.848,352.499 483.182,352.665 479.5,352.5C 479.5,353.833 479.5,355.167 479.5,356.5C 477.833,356.5 476.167,356.5 474.5,356.5C 474.5,349.5 474.5,342.5 474.5,335.5C 471.167,335.5 467.833,335.5 464.5,335.5C 464.5,342.5 464.5,349.5 464.5,356.5C 462.833,356.5 461.167,356.5 459.5,356.5C 459.5,349.5 459.5,342.5 459.5,335.5C 456.167,335.5 452.833,335.5 449.5,335.5C 449.5,342.5 449.5,349.5 449.5,356.5C 448.167,356.5 446.833,356.5 445.5,356.5C 445.5,355.167 445.5,353.833 445.5,352.5C 445.5,351.5 445.5,350.5 445.5,349.5C 445.5,349.167 445.5,348.833 445.5,348.5C 445.5,341.5 445.5,334.5 445.5,327.5C 445.5,327.167 445.5,326.833 445.5,326.5 Z"/></g>
<g><path style="opacity:1" fill="#73a4be" d="M 423.5,327.5 C 423.5,337.167 423.5,346.833 423.5,356.5C 415.5,356.5 407.5,356.5 399.5,356.5C 398.278,352.835 398.278,349.169 399.5,345.5C 397.166,342.837 395.333,339.837 394,336.5C 391.119,334.972 388.786,335.638 387,338.5C 386.887,340.974 385.887,342.974 384,344.5C 383.284,347.418 383.784,350.085 385.5,352.5C 385.154,353.849 384.821,355.183 384.5,356.5C 381.833,356.5 379.167,356.5 376.5,356.5C 376.5,346.833 376.5,337.167 376.5,327.5C 392.167,327.5 407.833,327.5 423.5,327.5 Z"/></g>
<g><path style="opacity:1" fill="#71a3bf" d="M 445.5,327.5 C 445.5,334.5 445.5,341.5 445.5,348.5C 439.5,348.5 433.5,348.5 427.5,348.5C 427.5,341.5 427.5,334.5 427.5,327.5C 433.5,327.5 439.5,327.5 445.5,327.5 Z"/></g>
<g><path style="opacity:1" fill="#6991a8" d="M 479.5,326.5 C 485.833,326.5 492.167,326.5 498.5,326.5C 498.5,334.167 498.5,341.833 498.5,349.5C 497.167,349.5 495.833,349.5 494.5,349.5C 494.5,350.5 494.5,351.5 494.5,352.5C 495.833,352.5 497.167,352.5 498.5,352.5C 498.5,353.833 498.5,355.167 498.5,356.5C 492.167,356.5 485.833,356.5 479.5,356.5C 479.5,355.167 479.5,353.833 479.5,352.5C 483.182,352.665 486.848,352.499 490.5,352C 490.957,351.586 491.291,351.086 491.5,350.5C 487.555,349.509 483.555,349.176 479.5,349.5C 479.5,341.833 479.5,334.167 479.5,326.5 Z"/></g>
<g><path style="opacity:1" fill="#b5c3d8" d="M 153.5,319.5 C 157.034,327.038 157.368,334.705 154.5,342.5C 154.691,334.799 154.358,327.132 153.5,319.5 Z"/></g>
<g><path style="opacity:1" fill="#546d7e" d="M 445.5,326.5 C 445.5,326.833 445.5,327.167 445.5,327.5C 439.5,327.5 433.5,327.5 427.5,327.5C 427.5,334.5 427.5,341.5 427.5,348.5C 433.5,348.5 439.5,348.5 445.5,348.5C 445.5,348.833 445.5,349.167 445.5,349.5C 439.167,349.5 432.833,349.5 426.5,349.5C 426.5,341.833 426.5,334.167 426.5,326.5C 432.833,326.5 439.167,326.5 445.5,326.5 Z"/></g>
<g><path style="opacity:1" fill="#2c3433" d="M 459.5,356.5 C 456.167,356.5 452.833,356.5 449.5,356.5C 449.5,349.5 449.5,342.5 449.5,335.5C 452.833,335.5 456.167,335.5 459.5,335.5C 459.5,342.5 459.5,349.5 459.5,356.5 Z"/></g>
<g><path style="opacity:1" fill="#2b3333" d="M 474.5,356.5 C 471.167,356.5 467.833,356.5 464.5,356.5C 464.5,349.5 464.5,342.5 464.5,335.5C 467.833,335.5 471.167,335.5 474.5,335.5C 474.5,342.5 474.5,349.5 474.5,356.5 Z"/></g>
<g><path style="opacity:1" fill="#707f4d" d="M 399.5,356.5 C 394.5,356.5 389.5,356.5 384.5,356.5C 384.821,355.183 385.154,353.849 385.5,352.5C 383.784,350.085 383.284,347.418 384,344.5C 385.887,342.974 386.887,340.974 387,338.5C 388.786,335.638 391.119,334.972 394,336.5C 395.333,339.837 397.166,342.837 399.5,345.5C 398.278,349.169 398.278,352.835 399.5,356.5 Z"/></g>
<g><path style="opacity:1" fill="#74a1bb" d="M 445.5,352.5 C 445.5,353.833 445.5,355.167 445.5,356.5C 439.167,356.5 432.833,356.5 426.5,356.5C 426.5,355.167 426.5,353.833 426.5,352.5C 432.833,352.5 439.167,352.5 445.5,352.5 Z"/></g>
<g><path style="opacity:1" fill="#996d63" d="M 375.5,356.5 C 375.833,356.5 376.167,356.5 376.5,356.5C 379.167,356.5 381.833,356.5 384.5,356.5C 389.5,356.5 394.5,356.5 399.5,356.5C 407.5,356.5 415.5,356.5 423.5,356.5C 424.5,356.5 425.5,356.5 426.5,356.5C 432.833,356.5 439.167,356.5 445.5,356.5C 446.833,356.5 448.167,356.5 449.5,356.5C 452.833,356.5 456.167,356.5 459.5,356.5C 461.167,356.5 462.833,356.5 464.5,356.5C 467.833,356.5 471.167,356.5 474.5,356.5C 476.167,356.5 477.833,356.5 479.5,356.5C 485.833,356.5 492.167,356.5 498.5,356.5C 499.5,356.5 500.5,356.5 501.5,356.5C 501.5,357.167 501.5,357.833 501.5,358.5C 458.5,358.5 415.5,358.5 372.5,358.5C 373.5,357.833 374.5,357.167 375.5,356.5 Z"/></g>
<g><path style="opacity:1" fill="#cfbcb8" d="M 372.5,359.5 C 372.5,359.167 372.5,358.833 372.5,358.5C 415.5,358.5 458.5,358.5 501.5,358.5C 501.167,359.167 500.833,359.833 500.5,360.5C 499.833,360.5 499.167,360.5 498.5,360.5C 492.167,360.5 485.833,360.5 479.5,360.5C 468.167,360.5 456.833,360.5 445.5,360.5C 439.5,359.167 433.5,359.167 427.5,360.5C 426.167,360.5 424.833,360.5 423.5,360.5C 406.675,359.503 389.675,359.17 372.5,359.5 Z"/></g>
<g><path style="opacity:1" fill="#4f483b" d="M 445.5,360.5 C 456.833,360.5 468.167,360.5 479.5,360.5C 479.5,363.167 479.5,365.833 479.5,368.5C 468.167,368.5 456.833,368.5 445.5,368.5C 445.5,365.833 445.5,363.167 445.5,360.5 Z"/></g>
<g><path style="opacity:1" fill="#628397" d="M 498.5,360.5 C 499.167,360.5 499.833,360.5 500.5,360.5C 500.5,363.167 500.5,365.833 500.5,368.5C 496.5,368.5 492.5,368.5 488.5,368.5C 488.5,366.167 488.5,363.833 488.5,361.5C 492.042,361.813 495.375,361.479 498.5,360.5 Z"/></g>
<g><path style="opacity:1" fill="#88b2ca" d="M 445.5,360.5 C 445.5,363.167 445.5,365.833 445.5,368.5C 442.833,368.5 440.167,368.5 437.5,368.5C 437.5,365.833 437.5,363.167 437.5,360.5C 440.167,360.5 442.833,360.5 445.5,360.5 Z"/></g>
<g><path style="opacity:1" fill="#80abc3" d="M 479.5,360.5 C 485.833,360.5 492.167,360.5 498.5,360.5C 495.375,361.479 492.042,361.813 488.5,361.5C 488.5,363.833 488.5,366.167 488.5,368.5C 485.5,368.5 482.5,368.5 479.5,368.5C 479.5,365.833 479.5,363.167 479.5,360.5 Z"/></g>
<g><path style="opacity:1" fill="#7299b0" d="M 373.5,370.5 C 373.833,370.5 374.167,370.5 374.5,370.5C 374.5,376.833 374.5,383.167 374.5,389.5C 377.247,389.813 379.914,389.48 382.5,388.5C 380.257,387.526 377.924,387.192 375.5,387.5C 375.5,381.833 375.5,376.167 375.5,370.5C 377.833,370.5 380.167,370.5 382.5,370.5C 382.644,374.375 382.31,378.208 381.5,382C 382.617,384.731 383.283,387.565 383.5,390.5C 380.167,390.5 376.833,390.5 373.5,390.5C 373.5,383.833 373.5,377.167 373.5,370.5 Z"/></g>
<g><path style="opacity:1" fill="#648ca2" d="M 498.5,370.5 C 498.5,375.833 498.5,381.167 498.5,386.5C 496.167,386.5 493.833,386.5 491.5,386.5C 491.5,381.167 491.5,375.833 491.5,370.5C 493.833,370.5 496.167,370.5 498.5,370.5 Z"/></g>
<g><path style="opacity:1" fill="#d8dcdd" d="M 372.5,359.5 C 389.675,359.17 406.675,359.503 423.5,360.5C 414.5,360.5 405.5,360.5 396.5,360.5C 392.833,360.5 389.167,360.5 385.5,360.5C 381.5,360.5 377.5,360.5 373.5,360.5C 373.5,363.167 373.5,365.833 373.5,368.5C 379.167,368.5 384.833,368.5 390.5,368.5C 391.167,368.5 391.833,368.5 392.5,368.5C 402.833,368.5 413.167,368.5 423.5,368.5C 424.833,368.5 426.167,368.5 427.5,368.5C 430.5,368.5 433.5,368.5 436.5,368.5C 436.5,365.833 436.5,363.167 436.5,360.5C 433.5,360.5 430.5,360.5 427.5,360.5C 433.5,359.167 439.5,359.167 445.5,360.5C 442.833,360.5 440.167,360.5 437.5,360.5C 437.5,363.167 437.5,365.833 437.5,368.5C 440.167,368.5 442.833,368.5 445.5,368.5C 456.833,368.5 468.167,368.5 479.5,368.5C 482.5,368.5 485.5,368.5 488.5,368.5C 492.5,368.5 496.5,368.5 500.5,368.5C 500.5,369.167 500.5,369.833 500.5,370.5C 499.833,370.5 499.167,370.5 498.5,370.5C 496.167,370.5 493.833,370.5 491.5,370.5C 491.5,375.833 491.5,381.167 491.5,386.5C 491.5,387.833 491.5,389.167 491.5,390.5C 490.833,390.5 490.167,390.5 489.5,390.5C 489.5,389.167 489.5,387.833 489.5,386.5C 489.5,381.167 489.5,375.833 489.5,370.5C 486.5,370.5 483.5,370.5 480.5,370.5C 480.5,375.833 480.5,381.167 480.5,386.5C 480.5,387.833 480.5,389.167 480.5,390.5C 479.833,390.5 479.167,390.5 478.5,390.5C 478.5,383.833 478.5,377.167 478.5,370.5C 475.5,370.5 472.5,370.5 469.5,370.5C 469.5,377.167 469.5,383.833 469.5,390.5C 469.167,390.5 468.833,390.5 468.5,390.5C 468.5,383.833 468.5,377.167 468.5,370.5C 465.5,370.5 462.5,370.5 459.5,370.5C 459.5,377.167 459.5,383.833 459.5,390.5C 458.833,390.5 458.167,390.5 457.5,390.5C 457.5,383.833 457.5,377.167 457.5,370.5C 454.5,370.5 451.5,370.5 448.5,370.5C 448.5,377.167 448.5,383.833 448.5,390.5C 447.833,390.5 447.167,390.5 446.5,390.5C 446.824,383.646 446.491,376.979 445.5,370.5C 442.833,370.5 440.167,370.5 437.5,370.5C 437.5,375.833 437.5,381.167 437.5,386.5C 437.5,387.833 437.5,389.167 437.5,390.5C 437.167,390.5 436.833,390.5 436.5,390.5C 436.5,389.167 436.5,387.833 436.5,386.5C 436.5,381.167 436.5,375.833 436.5,370.5C 433.5,370.5 430.5,370.5 427.5,370.5C 427.5,375.833 427.5,381.167 427.5,386.5C 427.5,387.833 427.5,389.167 427.5,390.5C 426.833,390.5 426.167,390.5 425.5,390.5C 426.126,383.416 425.459,376.75 423.5,370.5C 417.167,369.167 410.833,369.167 404.5,370.5C 400.988,369.945 397.988,370.612 395.5,372.5C 394.833,372.5 394.167,372.5 393.5,372.5C 393.167,372.5 392.833,372.5 392.5,372.5C 390.365,370.631 387.698,369.964 384.5,370.5C 384.5,371.5 384.5,372.5 384.5,373.5C 384.5,379.167 384.5,384.833 384.5,390.5C 384.167,390.5 383.833,390.5 383.5,390.5C 383.283,387.565 382.617,384.731 381.5,382C 382.31,378.208 382.644,374.375 382.5,370.5C 380.167,370.5 377.833,370.5 375.5,370.5C 375.167,370.5 374.833,370.5 374.5,370.5C 374.167,370.5 373.833,370.5 373.5,370.5C 373.167,370.5 372.833,370.5 372.5,370.5C 372.5,366.833 372.5,363.167 372.5,359.5 Z"/></g>
<g><path style="opacity:1" fill="#7a9aaa" d="M 392.5,372.5 C 389.721,372.279 387.054,372.612 384.5,373.5C 384.5,372.5 384.5,371.5 384.5,370.5C 387.698,369.964 390.365,370.631 392.5,372.5 Z"/></g>
<g><path style="opacity:1" fill="#76a6c1" d="M 489.5,386.5 C 486.5,386.5 483.5,386.5 480.5,386.5C 480.5,381.167 480.5,375.833 480.5,370.5C 483.5,370.5 486.5,370.5 489.5,370.5C 489.5,375.833 489.5,381.167 489.5,386.5 Z"/></g>
<g><path style="opacity:1" fill="#554c3d" d="M 478.5,390.5 C 475.5,390.5 472.5,390.5 469.5,390.5C 469.5,383.833 469.5,377.167 469.5,370.5C 472.5,370.5 475.5,370.5 478.5,370.5C 478.5,377.167 478.5,383.833 478.5,390.5 Z"/></g>
<g><path style="opacity:1" fill="#5d5344" d="M 468.5,390.5 C 465.5,390.5 462.5,390.5 459.5,390.5C 459.5,383.833 459.5,377.167 459.5,370.5C 462.5,370.5 465.5,370.5 468.5,370.5C 468.5,377.167 468.5,383.833 468.5,390.5 Z"/></g>
<g><path style="opacity:1" fill="#5e5344" d="M 457.5,390.5 C 454.5,390.5 451.5,390.5 448.5,390.5C 448.5,383.833 448.5,377.167 448.5,370.5C 451.5,370.5 454.5,370.5 457.5,370.5C 457.5,377.167 457.5,383.833 457.5,390.5 Z"/></g>
<g><path style="opacity:1" fill="#4f4e4e" d="M 445.5,370.5 C 446.491,376.979 446.824,383.646 446.5,390.5C 443.5,390.5 440.5,390.5 437.5,390.5C 437.5,389.167 437.5,387.833 437.5,386.5C 440.167,386.5 442.833,386.5 445.5,386.5C 445.5,381.167 445.5,375.833 445.5,370.5 Z"/></g>
<g><path style="opacity:1" fill="#78a7c2" d="M 445.5,370.5 C 445.5,375.833 445.5,381.167 445.5,386.5C 442.833,386.5 440.167,386.5 437.5,386.5C 437.5,381.167 437.5,375.833 437.5,370.5C 440.167,370.5 442.833,370.5 445.5,370.5 Z"/></g>
<g><path style="opacity:1" fill="#3b3b41" d="M 423.5,370.5 C 425.459,376.75 426.126,383.416 425.5,390.5C 422.5,390.5 419.5,390.5 416.5,390.5C 416.5,389.167 416.5,387.833 416.5,386.5C 418.833,386.5 421.167,386.5 423.5,386.5C 423.5,381.167 423.5,375.833 423.5,370.5 Z"/></g>
<g><path style="opacity:1" fill="#76a6c1" d="M 423.5,370.5 C 423.5,375.833 423.5,381.167 423.5,386.5C 421.167,386.5 418.833,386.5 416.5,386.5C 416.5,381.167 416.5,375.833 416.5,370.5C 418.833,370.5 421.167,370.5 423.5,370.5 Z"/></g>
<g><path style="opacity:1" fill="#79a7c2" d="M 414.5,386.5 C 411.833,386.5 409.167,386.5 406.5,386.5C 406.5,387.833 406.5,389.167 406.5,390.5C 405.509,384.021 405.176,377.354 405.5,370.5C 408.5,370.5 411.5,370.5 414.5,370.5C 414.5,375.833 414.5,381.167 414.5,386.5 Z"/></g>
<g><path style="opacity:1" fill="#7fabc3" d="M 404.5,370.5 C 404.5,375.833 404.5,381.167 404.5,386.5C 403.167,386.5 401.833,386.5 400.5,386.5C 401.917,381.906 401.25,377.572 398.5,373.5C 397.675,372.614 396.675,372.281 395.5,372.5C 397.988,370.612 400.988,369.945 404.5,370.5 Z"/></g>
<g><path style="opacity:1" fill="#3e444d" d="M 423.5,360.5 C 424.833,360.5 426.167,360.5 427.5,360.5C 427.5,363.167 427.5,365.833 427.5,368.5C 426.167,368.5 424.833,368.5 423.5,368.5C 423.5,365.833 423.5,363.167 423.5,360.5 Z"/></g>
<g><path style="opacity:1" fill="#79a8c3" d="M 427.5,360.5 C 430.5,360.5 433.5,360.5 436.5,360.5C 436.5,363.167 436.5,365.833 436.5,368.5C 433.5,368.5 430.5,368.5 427.5,368.5C 427.5,365.833 427.5,363.167 427.5,360.5 Z"/></g>
<g><path style="opacity:1" fill="#76a6c1" d="M 396.5,360.5 C 405.5,360.5 414.5,360.5 423.5,360.5C 423.5,363.167 423.5,365.833 423.5,368.5C 413.167,368.5 402.833,368.5 392.5,368.5C 392.215,366.712 392.548,365.045 393.5,363.5C 395.213,363.121 396.213,362.121 396.5,360.5 Z"/></g>
<g><path style="opacity:1" fill="#64674a" d="M 385.5,360.5 C 389.167,360.5 392.833,360.5 396.5,360.5C 396.213,362.121 395.213,363.121 393.5,363.5C 392.548,365.045 392.215,366.712 392.5,368.5C 391.833,368.5 391.167,368.5 390.5,368.5C 390.5,366.833 390.5,365.167 390.5,363.5C 387.966,363.741 386.3,362.741 385.5,360.5 Z"/></g>
<g><path style="opacity:1" fill="#719cb3" d="M 385.5,360.5 C 386.3,362.741 387.966,363.741 390.5,363.5C 390.5,365.167 390.5,366.833 390.5,368.5C 384.833,368.5 379.167,368.5 373.5,368.5C 373.5,365.833 373.5,363.167 373.5,360.5C 377.5,360.5 381.5,360.5 385.5,360.5 Z"/></g>
<g><path style="opacity:1" fill="#d4caba" d="M 392.5,372.5 C 392.833,372.5 393.167,372.5 393.5,372.5C 393.5,378.5 393.5,384.5 393.5,390.5C 390.5,390.5 387.5,390.5 384.5,390.5C 384.5,384.833 384.5,379.167 384.5,373.5C 387.054,372.612 389.721,372.279 392.5,372.5 Z"/></g>
<g><path style="opacity:1" fill="#d4cbbb" d="M 395.5,372.5 C 396.675,372.281 397.675,372.614 398.5,373.5C 401.25,377.572 401.917,381.906 400.5,386.5C 398.659,387.402 397.326,388.736 396.5,390.5C 395.51,384.69 395.177,378.69 395.5,372.5 Z"/></g>
<g><path style="opacity:1" fill="#83aec7" d="M 436.5,386.5 C 433.5,386.5 430.5,386.5 427.5,386.5C 427.5,381.167 427.5,375.833 427.5,370.5C 430.5,370.5 433.5,370.5 436.5,370.5C 436.5,375.833 436.5,381.167 436.5,386.5 Z"/></g>
<g><path style="opacity:1" fill="#323238" d="M 374.5,370.5 C 374.833,370.5 375.167,370.5 375.5,370.5C 375.5,376.167 375.5,381.833 375.5,387.5C 377.924,387.192 380.257,387.526 382.5,388.5C 379.914,389.48 377.247,389.813 374.5,389.5C 374.5,383.167 374.5,376.833 374.5,370.5 Z"/></g>
<g><path style="opacity:1" fill="#3f4148" d="M 414.5,386.5 C 414.5,387.833 414.5,389.167 414.5,390.5C 411.833,390.5 409.167,390.5 406.5,390.5C 406.5,389.167 406.5,387.833 406.5,386.5C 409.167,386.5 411.833,386.5 414.5,386.5 Z"/></g>
<g><path style="opacity:1" fill="#414248" d="M 498.5,370.5 C 499.167,370.5 499.833,370.5 500.5,370.5C 500.5,377.167 500.5,383.833 500.5,390.5C 497.5,390.5 494.5,390.5 491.5,390.5C 491.5,389.167 491.5,387.833 491.5,386.5C 493.833,386.5 496.167,386.5 498.5,386.5C 498.5,381.167 498.5,375.833 498.5,370.5 Z"/></g>
<g><path style="opacity:1" fill="#55565a" d="M 400.5,386.5 C 401.833,386.5 403.167,386.5 404.5,386.5C 404.5,387.833 404.5,389.167 404.5,390.5C 401.833,390.5 399.167,390.5 396.5,390.5C 397.326,388.736 398.659,387.402 400.5,386.5 Z"/></g>
<g><path style="opacity:1" fill="#4e5158" d="M 427.5,386.5 C 430.5,386.5 433.5,386.5 436.5,386.5C 436.5,387.833 436.5,389.167 436.5,390.5C 433.5,390.5 430.5,390.5 427.5,390.5C 427.5,389.167 427.5,387.833 427.5,386.5 Z"/></g>
<g><path style="opacity:1" fill="#4c4f56" d="M 480.5,386.5 C 483.5,386.5 486.5,386.5 489.5,386.5C 489.5,387.833 489.5,389.167 489.5,390.5C 486.5,390.5 483.5,390.5 480.5,390.5C 480.5,389.167 480.5,387.833 480.5,386.5 Z"/></g>
<g><path style="opacity:1" fill="#e5e7e9" d="M 286.5,280.5 C 286.833,280.5 287.167,280.5 287.5,280.5C 287.5,361.167 287.5,441.833 287.5,522.5C 291.167,522.5 294.833,522.5 298.5,522.5C 298.5,487.5 298.5,452.5 298.5,417.5C 366.5,417.5 434.5,417.5 502.5,417.5C 502.813,421.042 502.479,424.375 501.5,427.5C 501.5,424.5 501.5,421.5 501.5,418.5C 434.167,418.5 366.833,418.5 299.5,418.5C 299.5,453.5 299.5,488.5 299.5,523.5C 295.167,523.5 290.833,523.5 286.5,523.5C 286.5,512.167 286.5,500.833 286.5,489.5C 286.5,419.833 286.5,350.167 286.5,280.5 Z"/></g>
<g><path style="opacity:1" fill="#b5b5b2" d="M 501.5,427.5 C 438.5,427.5 375.5,427.5 312.5,427.5C 312.5,459.5 312.5,491.5 312.5,523.5C 316.833,523.5 321.167,523.5 325.5,523.5C 324.432,524.434 323.099,524.768 321.5,524.5C 321.167,524.5 320.833,524.5 320.5,524.5C 308.988,524.828 297.654,524.495 286.5,523.5C 290.833,523.5 295.167,523.5 299.5,523.5C 299.5,488.5 299.5,453.5 299.5,418.5C 366.833,418.5 434.167,418.5 501.5,418.5C 501.5,421.5 501.5,424.5 501.5,427.5 Z"/></g>
<g><path style="opacity:1" fill="#d5d4d2" d="M 501.5,427.5 C 501.5,459.5 501.5,491.5 501.5,523.5C 497.5,523.5 493.5,523.5 489.5,523.5C 489.831,496.328 489.498,469.328 488.5,442.5C 453.833,442.5 419.167,442.5 384.5,442.5C 383.502,469.328 383.169,496.328 383.5,523.5C 380.167,523.5 376.833,523.5 373.5,523.5C 373.5,496.5 373.5,469.5 373.5,442.5C 356.167,442.5 338.833,442.5 321.5,442.5C 321.5,469.167 321.5,495.833 321.5,522.5C 322.5,522.5 323.5,522.5 324.5,522.5C 324.169,497.328 324.502,472.328 325.5,447.5C 325.5,472.833 325.5,498.167 325.5,523.5C 321.167,523.5 316.833,523.5 312.5,523.5C 312.5,491.5 312.5,459.5 312.5,427.5C 375.5,427.5 438.5,427.5 501.5,427.5 Z"/></g>
<g><path style="opacity:1" fill="#f8f8f7" d="M 373.5,523.5 C 371.833,523.5 370.167,523.5 368.5,523.5C 368.5,498.167 368.5,472.833 368.5,447.5C 354.167,447.5 339.833,447.5 325.5,447.5C 324.502,472.328 324.169,497.328 324.5,522.5C 323.5,522.5 322.5,522.5 321.5,522.5C 321.5,495.833 321.5,469.167 321.5,442.5C 338.833,442.5 356.167,442.5 373.5,442.5C 373.5,469.5 373.5,496.5 373.5,523.5 Z"/></g>
<g><path style="opacity:1" fill="#36373d" d="M 384.5,442.5 C 419.167,442.5 453.833,442.5 488.5,442.5C 488.5,469.5 488.5,496.5 488.5,523.5C 453.833,523.5 419.167,523.5 384.5,523.5C 384.5,496.5 384.5,469.5 384.5,442.5 Z"/></g>
<g><path style="opacity:1" fill="#648da3" d="M 387.5,446.5 C 420.167,446.5 452.833,446.5 485.5,446.5C 485.5,451.167 485.5,455.833 485.5,460.5C 452.833,460.5 420.167,460.5 387.5,460.5C 387.5,455.833 387.5,451.167 387.5,446.5 Z"/></g>
<g><path style="opacity:1" fill="#71a1bc" d="M 387.5,463.5 C 393.167,463.5 398.833,463.5 404.5,463.5C 404.5,482.5 404.5,501.5 404.5,520.5C 398.833,520.5 393.167,520.5 387.5,520.5C 387.5,501.5 387.5,482.5 387.5,463.5 Z"/></g>
<g><path style="opacity:1" fill="#73a4c0" d="M 407.5,464.5 C 416.833,464.5 426.167,464.5 435.5,464.5C 435.5,483.167 435.5,501.833 435.5,520.5C 426.167,520.5 416.833,520.5 407.5,520.5C 407.5,501.833 407.5,483.167 407.5,464.5 Z"/></g>
<g><path style="opacity:1" fill="#648aa1" d="M 467.5,520.5 C 467.5,501.833 467.5,483.167 467.5,464.5C 458.5,464.5 449.5,464.5 440.5,464.5C 440.5,482.833 440.5,501.167 440.5,519.5C 446.358,519.178 452.025,519.511 457.5,520.5C 451.5,520.5 445.5,520.5 439.5,520.5C 439.5,501.5 439.5,482.5 439.5,463.5C 449.167,463.5 458.833,463.5 468.5,463.5C 468.83,482.674 468.497,501.674 467.5,520.5 Z"/></g>
<g><path style="opacity:1" fill="#73a4bf" d="M 467.5,520.5 C 464.167,520.5 460.833,520.5 457.5,520.5C 452.025,519.511 446.358,519.178 440.5,519.5C 440.5,501.167 440.5,482.833 440.5,464.5C 449.5,464.5 458.5,464.5 467.5,464.5C 467.5,483.167 467.5,501.833 467.5,520.5 Z"/></g>
<g><path style="opacity:1" fill="#73a2bd" d="M 471.5,463.5 C 476.167,463.5 480.833,463.5 485.5,463.5C 485.5,482.5 485.5,501.5 485.5,520.5C 480.833,520.5 476.167,520.5 471.5,520.5C 471.5,501.5 471.5,482.5 471.5,463.5 Z"/></g>
<g><path style="opacity:1" fill="#5a778b" d="M 407.5,464.5 C 416.986,463.506 426.652,463.173 436.5,463.5C 436.83,482.674 436.497,501.674 435.5,520.5C 435.5,501.833 435.5,483.167 435.5,464.5C 426.167,464.5 416.833,464.5 407.5,464.5 Z"/></g>
<g><path style="opacity:1" fill="#6d7d4a" d="M 281.5,489.5 C 282.833,489.5 284.167,489.5 285.5,489.5C 285.5,500.833 285.5,512.167 285.5,523.5C 273.167,523.5 260.833,523.5 248.5,523.5C 248.335,519.818 248.501,516.152 249,512.5C 249.5,512 250,511.5 250.5,511C 254.904,510.742 259.238,511.242 263.5,512.5C 263.261,510.533 263.594,508.699 264.5,507C 266.847,506.666 269.181,506.833 271.5,507.5C 269.665,498.494 272.998,492.494 281.5,489.5 Z"/></g>
<g><path style="opacity:1" fill="#878076" d="M 325.5,447.5 C 339.833,447.5 354.167,447.5 368.5,447.5C 368.5,472.833 368.5,498.167 368.5,523.5C 370.167,523.5 371.833,523.5 373.5,523.5C 373.5,523.833 373.5,524.167 373.5,524.5C 371.265,524.795 369.265,524.461 367.5,523.5C 367.5,498.5 367.5,473.5 367.5,448.5C 353.833,448.5 340.167,448.5 326.5,448.5C 326.5,473.5 326.5,498.5 326.5,523.5C 326.167,523.5 325.833,523.5 325.5,523.5C 325.5,498.167 325.5,472.833 325.5,447.5 Z"/></g>
<g><path style="opacity:1" fill="#4c4435" d="M 367.5,523.5 C 353.833,523.5 340.167,523.5 326.5,523.5C 326.5,498.5 326.5,473.5 326.5,448.5C 340.167,448.5 353.833,448.5 367.5,448.5C 367.5,473.5 367.5,498.5 367.5,523.5 Z"/></g>
<g><path style="opacity:1" fill="#60777f" d="M 362.5,496.5 C 358.03,497.486 353.363,497.819 348.5,497.5C 348.5,491.167 348.5,484.833 348.5,478.5C 353.5,478.5 358.5,478.5 363.5,478.5C 363.823,484.69 363.49,490.69 362.5,496.5 Z"/></g>
<g><path style="opacity:1" fill="#71a3be" d="M 362.5,496.5 C 358.167,496.5 353.833,496.5 349.5,496.5C 349.5,490.833 349.5,485.167 349.5,479.5C 353.833,479.5 358.167,479.5 362.5,479.5C 362.5,485.167 362.5,490.833 362.5,496.5 Z"/></g>
<g><path style="opacity:1" fill="#61767f" d="M 331.5,496.5 C 330.51,490.69 330.177,484.69 330.5,478.5C 335.5,478.5 340.5,478.5 345.5,478.5C 345.5,484.833 345.5,491.167 345.5,497.5C 340.637,497.819 335.97,497.486 331.5,496.5 Z"/></g>
<g><path style="opacity:1" fill="#71a3be" d="M 331.5,496.5 C 331.5,490.833 331.5,485.167 331.5,479.5C 335.833,479.5 340.167,479.5 344.5,479.5C 344.5,485.167 344.5,490.833 344.5,496.5C 340.167,496.5 335.833,496.5 331.5,496.5 Z"/></g>
<g><path style="opacity:1" fill="#60777e" d="M 362.5,473.5 C 358.03,474.486 353.363,474.819 348.5,474.5C 348.5,468.167 348.5,461.833 348.5,455.5C 353.5,455.5 358.5,455.5 363.5,455.5C 363.823,461.69 363.49,467.69 362.5,473.5 Z"/></g>
<g><path style="opacity:1" fill="#71a3be" d="M 362.5,473.5 C 358.167,473.5 353.833,473.5 349.5,473.5C 349.5,467.833 349.5,462.167 349.5,456.5C 353.833,456.5 358.167,456.5 362.5,456.5C 362.5,462.167 362.5,467.833 362.5,473.5 Z"/></g>
<g><path style="opacity:1" fill="#61777f" d="M 331.5,473.5 C 330.51,467.69 330.177,461.69 330.5,455.5C 335.5,455.5 340.5,455.5 345.5,455.5C 345.5,461.833 345.5,468.167 345.5,474.5C 340.637,474.819 335.97,474.486 331.5,473.5 Z"/></g>
<g><path style="opacity:1" fill="#71a3be" d="M 331.5,473.5 C 331.5,467.833 331.5,462.167 331.5,456.5C 335.833,456.5 340.167,456.5 344.5,456.5C 344.5,462.167 344.5,467.833 344.5,473.5C 340.167,473.5 335.833,473.5 331.5,473.5 Z"/></g>
<g><path style="opacity:1" fill="#6e7e49" d="M 515.5,504.5 C 518.167,504.5 520.833,504.5 523.5,504.5C 523.5,506.167 523.5,507.833 523.5,509.5C 531.798,508.426 540.132,508.26 548.5,509C 549.667,510.167 550.833,511.333 552,512.5C 552.499,516.152 552.665,519.818 552.5,523.5C 540.167,523.5 527.833,523.5 515.5,523.5C 515.5,517.167 515.5,510.833 515.5,504.5 Z"/></g>
<g><path style="opacity:1" fill="#656954" d="M 384.5,442.5 C 384.5,469.5 384.5,496.5 384.5,523.5C 419.167,523.5 453.833,523.5 488.5,523.5C 488.5,523.833 488.5,524.167 488.5,524.5C 453.329,524.832 418.329,524.498 383.5,523.5C 383.169,496.328 383.502,469.328 384.5,442.5 Z"/></g>
<g><path style="opacity:1" fill="#a8ac99" d="M 488.5,442.5 C 489.498,469.328 489.831,496.328 489.5,523.5C 493.5,523.5 497.5,523.5 501.5,523.5C 505.833,523.5 510.167,523.5 514.5,523.5C 514.5,517.167 514.5,510.833 514.5,504.5C 514.833,504.5 515.167,504.5 515.5,504.5C 515.5,510.833 515.5,517.167 515.5,523.5C 506.682,524.493 497.682,524.827 488.5,524.5C 488.5,524.167 488.5,523.833 488.5,523.5C 488.5,496.5 488.5,469.5 488.5,442.5 Z"/></g>
<g><path style="opacity:1" fill="#899b5a" d="M 285.5,489.5 C 285.833,489.5 286.167,489.5 286.5,489.5C 286.5,500.833 286.5,512.167 286.5,523.5C 297.654,524.495 308.988,524.828 320.5,524.5C 320.5,529.167 320.5,533.833 320.5,538.5C 293.167,538.5 265.833,538.5 238.5,538.5C 238.5,533.833 238.5,529.167 238.5,524.5C 242.042,524.813 245.375,524.479 248.5,523.5C 260.833,523.5 273.167,523.5 285.5,523.5C 285.5,512.167 285.5,500.833 285.5,489.5 Z"/></g>
<g><path style="opacity:1" fill="#575858" d="M 325.5,523.5 C 325.833,523.5 326.167,523.5 326.5,523.5C 340.167,523.5 353.833,523.5 367.5,523.5C 369.265,524.461 371.265,524.795 373.5,524.5C 373.5,529.5 373.5,534.5 373.5,539.5C 434.167,539.5 494.833,539.5 555.5,539.5C 555.5,534.5 555.5,529.5 555.5,524.5C 554.209,524.737 553.209,524.404 552.5,523.5C 553.833,523.5 555.167,523.5 556.5,523.5C 556.5,535.833 556.5,548.167 556.5,560.5C 557.5,560.5 558.5,560.5 559.5,560.5C 558.791,561.404 557.791,561.737 556.5,561.5C 555.527,563.948 555.194,566.615 555.5,569.5C 537.992,569.17 520.659,569.503 503.5,570.5C 502.833,570.5 502.167,570.5 501.5,570.5C 413.668,569.501 325.668,569.167 237.5,569.5C 237.5,559.5 237.5,549.5 237.5,539.5C 265.5,539.5 293.5,539.5 321.5,539.5C 321.5,534.5 321.5,529.5 321.5,524.5C 323.099,524.768 324.432,524.434 325.5,523.5 Z"/></g>
<g><path style="opacity:1" fill="#889959" d="M 373.5,523.5 C 376.833,523.5 380.167,523.5 383.5,523.5C 418.329,524.498 453.329,524.832 488.5,524.5C 497.682,524.827 506.682,524.493 515.5,523.5C 527.833,523.5 540.167,523.5 552.5,523.5C 553.209,524.404 554.209,524.737 555.5,524.5C 555.5,529.5 555.5,534.5 555.5,539.5C 494.833,539.5 434.167,539.5 373.5,539.5C 373.5,534.5 373.5,529.5 373.5,524.5C 373.5,524.167 373.5,523.833 373.5,523.5 Z"/></g>
<g><path style="opacity:1" fill="#717c59" d="M 248.5,523.5 C 245.375,524.479 242.042,524.813 238.5,524.5C 238.5,529.167 238.5,533.833 238.5,538.5C 265.833,538.5 293.167,538.5 320.5,538.5C 320.5,533.833 320.5,529.167 320.5,524.5C 320.833,524.5 321.167,524.5 321.5,524.5C 321.5,529.5 321.5,534.5 321.5,539.5C 293.5,539.5 265.5,539.5 237.5,539.5C 237.5,534.167 237.5,528.833 237.5,523.5C 241.167,523.5 244.833,523.5 248.5,523.5 Z"/></g>
<g><path style="opacity:1" fill="#314d71" d="M 237.5,569.5 C 325.668,569.167 413.668,569.501 501.5,570.5C 499.05,570.298 496.717,570.631 494.5,571.5C 408.833,570.833 323.167,570.167 237.5,569.5 Z"/></g>
<g><path style="opacity:1" fill="#ababab" d="M 556.5,561.5 C 556.5,564.5 556.5,567.5 556.5,570.5C 538.833,570.5 521.167,570.5 503.5,570.5C 520.659,569.503 537.992,569.17 555.5,569.5C 555.194,566.615 555.527,563.948 556.5,561.5 Z"/></g>
<g><path style="opacity:1" fill="#5e7dac" d="M 240.5,576.5 C 262.005,577.466 283.338,578.799 304.5,580.5C 282.937,580.402 261.604,579.069 240.5,576.5 Z"/></g>
<g><path style="opacity:1" fill="#d7edf7" d="M -0.5,625.5 C -0.5,614.5 -0.5,603.5 -0.5,592.5C 0.314913,591.571 1.14825,590.571 2,589.5C 5.83333,598.667 12.3333,605.167 21.5,609C 12.3333,612.833 5.83333,619.333 2,628.5C 1.14825,627.429 0.314913,626.429 -0.5,625.5 Z"/></g>
<g><path style="opacity:1" fill="#ececec" d="M -0.5,666.5 C 237.167,666.5 474.833,666.5 712.5,666.5C 712.5,670.167 712.5,673.833 712.5,677.5C 474.833,677.5 237.167,677.5 -0.5,677.5C -0.5,673.833 -0.5,670.167 -0.5,666.5 Z"/></g>
<g><path style="opacity:1" fill="#e5e5e5" d="M -0.5,677.5 C 237.167,677.5 474.833,677.5 712.5,677.5C 712.5,678.833 712.5,680.167 712.5,681.5C 474.833,681.5 237.167,681.5 -0.5,681.5C -0.5,680.167 -0.5,678.833 -0.5,677.5 Z"/></g>
</svg>
