<svg width="672" height="582" viewBox="0 0 672 582" fill="none" xmlns="http://www.w3.org/2000/svg">
<path d="M45.8558 540.258C65.3136 553.547 87.6183 562.064 110.886 565.784C245.961 587.378 388.376 587.887 522.621 564.409C550.943 559.456 579.792 553.237 604.08 537.855C622.247 526.351 638.352 506.416 634.397 485.281C632.277 473.938 624.718 464.397 616.563 456.229C598.691 438.32 576.891 424.572 559.834 405.881C542.783 387.189 530.639 360.898 538.114 336.725C542.59 322.227 553.363 310.715 562.866 298.886C584.422 272.065 601.354 237.237 592.457 203.997C580.744 160.224 530.554 139.239 485.555 133.905C440.555 128.571 392.649 131.981 352.62 110.739C340.175 104.134 328.955 95.3275 316.239 89.2608C298.174 80.6445 277.366 77.9188 257.691 81.5965C251.458 82.7639 245.037 84.7234 240.6 89.2585C226.949 103.215 241.376 126.274 239.693 145.726C237.687 168.907 213.491 182.604 192.32 192.249C170.531 202.172 148.743 212.095 126.957 222.018C115.24 227.354 103.139 232.973 94.7266 242.719C86.3144 252.464 82.6645 267.582 89.7393 278.338C94.0069 284.825 101.278 288.634 106.665 294.227C122.121 310.274 118.352 337.793 104.932 355.579C91.5125 373.366 71.0313 384.082 51.8721 395.457C32.713 406.831 13.279 420.537 4.6152 441.065C-6.69895 467.873 3.97883 500.022 23.7199 521.398C30.3511 528.578 37.8283 534.775 45.8558 540.258Z" fill="#0F4387"/>
<path d="M528.459 505.477C519.095 503.638 502.255 507.998 502.255 507.998C502.255 507.998 507.387 501.357 502.691 500.701C497.989 500.046 488.869 504.066 488.869 504.066C488.869 504.066 500.442 478.686 472.023 478.648C443.604 478.608 417.383 506.921 417.383 506.921C417.383 506.921 424.175 486.69 404.791 484.049C385.413 481.408 375.052 497.336 375.052 497.336C375.052 497.336 379.278 489.659 370.934 487.716C362.596 485.773 353.533 499.241 353.533 499.241C353.533 499.241 352.813 471.959 327.974 471.479C303.13 470.999 298.876 492.945 298.876 492.945C298.876 492.945 295.675 486.982 290.011 486.449C284.346 485.917 281.401 498.036 281.401 498.036C281.401 498.036 259.977 479.859 246.779 486.701C233.581 493.542 240.05 506.446 240.05 506.446C240.05 506.446 234.396 501.857 231.326 503.698C228.262 505.538 230.918 510.655 230.918 510.655C230.918 510.655 219.759 506.567 216.519 509.036C213.273 511.505 214.741 521.767 214.741 521.767L534.594 521.766C534.594 521.766 537.822 507.316 528.459 505.477Z" fill="#707F48"/>
<path d="M202.641 570.42H538.672V521.587H202.641V570.42Z" fill="#8A9C59"/>
<path d="M254.285 265.299L429.148 202.282L495.259 265.299V521.767H254.285V265.299Z" fill="#D6D5D3"/>
<path d="M481.359 271.248V380.841H345.002V247.386L385.186 232.91L389.197 231.45L425.784 218.277L432.644 224.811L434.938 227.001L462.909 253.661L465.186 255.833L481.359 271.248Z" fill="#72A4C0"/>
<path d="M477.886 377.361H467.463V352.42L472.952 340.966H477.886V377.361ZM467.463 345.49V340.966H469.627L467.463 345.49ZM477.886 337.49H474.618L477.886 330.669V337.49ZM471.293 337.49H467.463V277.212L458.876 268.992L463.606 259.132L477.886 272.744V323.737L471.293 337.49ZM456.604 266.815L428.673 240.069L433.346 230.326L433.374 230.315L461.329 256.961L456.604 266.815ZM426.384 237.876L422.561 234.212L429.307 231.781L426.384 237.876Z" fill="#648DA4"/>
<path d="M348.474 316.432V309.515L376.627 250.766L380.632 249.322L348.474 316.432Z" fill="#8EB6CD"/>
<path d="M362.862 377.361H359.543L398.974 295.073V302.024L362.862 377.361ZM402.452 294.775V287.822L426.384 237.876L428.673 240.069L402.452 294.775Z" fill="#8EB6CD"/>
<path d="M428.673 240.069L426.384 237.876L429.307 231.782L433.346 230.326L428.673 240.069Z" fill="#83A4B6"/>
<path d="M406.932 377.361H403.618L421.059 340.966H424.379L406.932 377.361ZM426.044 337.49H422.725L456.604 266.815L458.876 268.992L426.044 337.49Z" fill="#8EB6CD"/>
<path d="M458.876 268.992L456.604 266.815L461.329 256.962L463.606 259.132L458.876 268.992Z" fill="#83A4B6"/>
<path d="M345.002 247.386V380.841H268.18V275.072L297.069 264.661L300.875 263.289L345.002 247.386Z" fill="#975E52"/>
<path d="M345.002 263.289V264.661H297.069L300.875 263.289H345.002Z" fill="#9F6356"/>
<path d="M268.18 285.517H345.002V284.144H268.18V285.517Z" fill="#9F6356"/>
<path d="M268.18 306.372H345.002V304.999H268.18V306.372Z" fill="#9F6356"/>
<path d="M268.18 327.226H345.002V325.854H268.18V327.226Z" fill="#9F6356"/>
<path d="M268.18 348.082H345.002V346.709H268.18V348.082Z" fill="#9F6356"/>
<path d="M268.18 368.937H345.002V367.564H268.18V368.937Z" fill="#9F6356"/>
<path d="M425.778 218.274L345.002 247.385V380.837H481.359V271.256L425.778 218.274ZM424.934 222.273L477.886 272.744V377.361H348.474V249.827L424.934 222.273Z" fill="#302E33"/>
<path d="M398.974 380.837H402.452V228.881H398.974V380.837Z" fill="#302E33"/>
<path d="M345.002 288.377H481.359V284.902H345.002V288.377Z" fill="#302E33"/>
<path d="M345.002 314.067H481.359V310.591H345.002V314.067Z" fill="#302E33"/>
<path d="M400.809 340.966H481.358V337.49H400.809V340.966Z" fill="#302E33"/>
<path d="M455.505 377.361H452.192L467.463 345.49V352.42L455.505 377.361Z" fill="#8EB6CD"/>
<path d="M467.463 352.42V345.49L469.627 340.966H472.952L467.463 352.42Z" fill="#83A4B6"/>
<path d="M453.84 380.837H450.526L452.192 377.361H455.506L453.84 380.837Z" fill="#59585C"/>
<path d="M474.618 337.49H471.293L477.886 323.737V330.669L474.618 337.49Z" fill="#83A4B6"/>
<path d="M477.886 330.67V323.737L481.358 316.486V323.421L477.886 330.67Z" fill="#59585C"/>
<path d="M472.952 340.966H469.627L471.292 337.49H474.618L472.952 340.966Z" fill="#59585C"/>
<path d="M458.032 314.111H422.073V380.558H458.032V314.111Z" fill="#4D4335"/>
<path d="M436.886 373.022H426.322V354.881H436.886V373.022Z" fill="#5F5341"/>
<path d="M452.571 373.022H442.007V354.881H452.571V373.022Z" fill="#5F5341"/>
<path d="M436.886 351.589H426.322V322.74H436.886V351.589Z" fill="#2B3333"/>
<path d="M452.571 351.589H442.007V322.74H452.571V351.589Z" fill="#2B3333"/>
<path d="M277.991 323.052H335.197V305.169H277.991V323.052Z" fill="white"/>
<path d="M280.602 320.422H332.58V307.787H280.602V320.422Z" fill="#72A4C0"/>
<path d="M358.115 343.615C358.631 343 359.339 342.456 359.452 341.661C359.531 341.153 359.339 340.643 359.112 340.183C358.574 339.089 357.821 338.112 357.317 337.003C356.812 335.895 356.58 334.564 357.13 333.477C357.724 332.304 359.107 331.631 359.526 330.383C359.724 329.791 359.667 329.148 359.718 328.526C359.945 325.571 362.868 323.103 365.819 323.376C366.771 323.465 367.796 323.886 368.175 324.763C368.43 325.358 368.345 326.039 368.459 326.677C368.94 329.397 372.724 330.461 373.376 333.145C373.97 335.603 371.608 338.063 372.203 340.522C372.605 342.205 374.242 343.814 373.976 345.655C373.755 347.173 372.322 347.341 371.348 348.3C370.685 348.952 370.651 349.995 370.254 350.838C369.824 351.769 368.94 352.437 367.983 352.802C364.828 354.004 361.559 353.611 359.192 351.122C357.305 349.143 356.155 345.95 358.115 343.615Z" fill="#707F48"/>
<path d="M363.916 366.806L364.358 337.673H365.439L366.368 366.806H363.916Z" fill="#4D4335"/>
<path d="M365.145 349.566L370.198 345.644L370.657 346.233L365.411 351.801L365.145 349.566Z" fill="#4D4335"/>
<path d="M371.28 362.021H359.537C359.537 362.021 354.734 369.23 354.734 372.761C354.734 376.292 361.389 380.837 361.389 380.837H365.411H369.427C369.427 380.837 376.083 376.292 376.083 372.761C376.083 369.23 371.28 362.021 371.28 362.021Z" fill="#D8CDBB"/>
<path d="M372.684 364.291H358.132L359.537 362.021H371.28L372.684 364.291Z" fill="#E7DBC9"/>
<path d="M481.359 347.722H345.002V345.517H481.359V347.722Z" fill="#9F6356"/>
<path d="M481.358 349.362H345.042V347.722H481.358V349.362Z" fill="#FBFBFB"/>
<path d="M481.358 359.872H345.042V358.232H481.358V359.872Z" fill="#FBFBFB"/>
<path d="M345.002 380.837V347.722H346.639V380.837H345.002Z" fill="#FBFBFB"/>
<path d="M356.229 380.837V358.232H357.866V380.837H356.229Z" fill="#FBFBFB"/>
<path d="M367.456 380.837V358.232H369.093V380.837H367.456Z" fill="#FBFBFB"/>
<path d="M378.677 380.837V358.232H380.32V380.837H378.677Z" fill="#FBFBFB"/>
<path d="M389.905 380.837V358.232H391.547V380.837H389.905Z" fill="#FBFBFB"/>
<path d="M401.132 380.837V358.232H402.774V380.837H401.132Z" fill="#FBFBFB"/>
<path d="M412.359 380.837V349.362H414.002V380.837H412.359Z" fill="#FBFBFB"/>
<path d="M423.586 380.837V358.232H425.229V380.837H423.586Z" fill="#FBFBFB"/>
<path d="M434.813 380.837V358.232H436.45V380.837H434.813Z" fill="#FBFBFB"/>
<path d="M446.04 380.837V358.232H447.677V380.837H446.04Z" fill="#FBFBFB"/>
<path d="M457.267 380.837V358.232H458.904V380.837H457.267Z" fill="#FBFBFB"/>
<path d="M468.494 380.837V358.232H470.131V380.837H468.494Z" fill="#FBFBFB"/>
<path d="M479.721 380.837V358.232H481.358V380.837H479.721Z" fill="#FBFBFB"/>
<path d="M479.721 380.837V347.722H481.358V380.837H479.721Z" fill="#FBFBFB"/>
<path d="M306.591 320.431H332.574V307.792H306.591V320.431Z" fill="#2D3F48"/>
<path d="M345.823 436.258H290.628V521.767H345.823V436.258Z" fill="#FBFBFB"/>
<path d="M340.64 441.441H295.805V521.767H340.64V441.441Z" fill="#4D4335"/>
<path d="M335.089 515.396V515.179H301.838V498.478H334.874V515.396H335.089H335.31V498.043H301.402V515.613H335.31V515.396H335.089Z" fill="#5F5341"/>
<path d="M335.089 493.35H320.242V474.358H335.089V493.35Z" fill="#72A4C0"/>
<path d="M316.47 468.964H301.617V449.972H316.47V468.964Z" fill="#72A4C0"/>
<path d="M316.47 493.35H301.617V474.358H316.47V493.35Z" fill="#72A4C0"/>
<path d="M335.089 468.964H320.242V449.972H335.089V468.964Z" fill="#72A4C0"/>
<path d="M357.13 521.763H467.582V436.17H357.13V521.763Z" fill="#72A4C0"/>
<path d="M467.582 455.808H467.231L467.582 455.08V455.808ZM463.912 455.808H412.58L421.813 436.556H467.582V448.145L463.912 455.808ZM409.249 455.808H368.986L378.207 436.556H418.477L409.249 455.808ZM365.677 455.808H357.135V436.556H374.905L365.677 455.808Z" fill="#648DA4"/>
<path d="M357.13 480.557V473.64L365.677 455.808H368.986L357.13 480.557ZM378.207 436.556H374.905L375.092 436.17H378.394L378.207 436.556Z" fill="#8EB6CD"/>
<path d="M368.986 455.808H365.677L374.905 436.556H378.207L368.986 455.808Z" fill="#83A4B6"/>
<path d="M380.96 521.763H377.647L409.249 455.808H412.58L380.96 521.763ZM421.813 436.556H418.477L418.664 436.17H421.994L421.813 436.556Z" fill="#8EB6CD"/>
<path d="M412.58 455.808H409.249L418.477 436.556H421.813L412.58 455.808Z" fill="#83A4B6"/>
<path d="M435.617 521.763H432.298L463.912 455.808H467.231L435.617 521.763Z" fill="#8EB6CD"/>
<path d="M467.231 455.808H463.912L467.582 448.145V455.08L467.231 455.808Z" fill="#83A4B6"/>
<path d="M467.588 436.17H357.135V521.767H467.588V436.17ZM464.11 439.645V518.291H360.608V439.645H464.11Z" fill="#302E33"/>
<path d="M358.132 458.362H467.588V454.886H358.132V458.362Z" fill="#302E33"/>
<path d="M378.581 521.767H382.059V456.624H378.581V521.767Z" fill="#302E33"/>
<path d="M412.263 521.767H415.735V456.624H412.263V521.767Z" fill="#302E33"/>
<path d="M445.944 521.767H449.416V456.624H445.944V521.767Z" fill="#302E33"/>
<path d="M268.18 380.841L268.185 368.937H282.08V380.837H268.185V380.841M282.08 367.564H268.18L268.185 348.082H282.08V367.564Z" fill="#81554C"/>
<path d="M268.185 275.068L345.002 247.385L300.875 263.289L297.069 264.661L268.185 275.071" fill="#B4B5B3"/>
<path d="M282.08 346.708H268.18L268.185 327.226H282.08V346.708ZM282.08 325.854H268.18L268.185 306.372H277.991V323.052H282.08V325.854ZM282.08 304.999H268.18L268.185 285.517H282.08V304.999ZM284.006 284.144H268.18L268.185 275.068L297.069 264.661L300.875 263.289L345.002 247.386V262.163L341.875 263.289H300.875L297.069 264.661H338.069L284.006 284.144Z" fill="#81554C"/>
<path d="M338.069 264.661H297.069L300.875 263.289H341.875L338.069 264.661Z" fill="#88594F"/>
<path d="M282.08 285.517H268.18L268.185 284.144H284.006L282.08 284.838V285.517Z" fill="#88594F"/>
<path d="M277.991 306.372H268.18L268.185 304.999H282.08V305.169H277.991V306.372Z" fill="#88594F"/>
<path d="M282.08 327.226H268.18L268.185 325.854H282.08V327.226Z" fill="#88594F"/>
<path d="M348.474 260.911V249.827L383.051 237.368L376.627 250.766L348.474 260.911ZM380.632 249.322L387.055 235.924L398.974 231.628V242.712L380.632 249.322Z" fill="#648DA4"/>
<path d="M376.627 250.766L383.05 237.368L387.055 235.925L380.632 249.322L376.627 250.766Z" fill="#7A9CAE"/>
<path d="M402.452 241.46V230.376L414.149 226.16L422.561 234.213L402.452 241.46Z" fill="#648DA4"/>
<path d="M422.561 234.213L414.149 226.16L424.934 222.273L431.063 228.113L429.307 231.782L422.561 234.213ZM433.346 230.326L433.357 230.301L433.374 230.316L433.346 230.326Z" fill="#597B8D"/>
<path d="M429.307 231.781L431.063 228.113L433.357 230.301L433.346 230.326L429.307 231.781Z" fill="#718D9C"/>
<path d="M282.08 348.082H268.18L268.185 346.709H282.08V348.082Z" fill="#88594F"/>
<path d="M282.08 368.937H268.18L268.185 367.564H282.08V368.937Z" fill="#88594F"/>
<path d="M345.002 262.163V247.385L425.778 218.274L437.028 228.999L433.374 230.316L433.357 230.301L431.063 228.113L424.934 222.273L414.149 226.16L402.452 230.376V228.881H398.974V231.628L387.056 235.924L383.051 237.368L348.474 249.827V260.911L345.002 262.163Z" fill="#2F2F33"/>
<path d="M398.974 242.712V228.881H402.452V241.46L398.974 242.712Z" fill="#2F2F33"/>
<path d="M282.08 323.052H277.991V305.169H282.08V307.787H280.602V320.422H282.08V323.052Z" fill="#D5D6D6"/>
<path d="M280.602 320.422H282.08V307.787H280.602V320.422Z" fill="#648DA4"/>
<path d="M451.648 223.73L429.154 202.287L452.571 223.396L451.648 223.73Z" fill="#B5C8D0"/>
<path d="M429.148 202.282L254.285 265.299V521.767H268.185V275.068L425.778 218.274L481.358 271.256V521.767H495.259V265.299L429.148 202.282Z" fill="#FBFBFB"/>
<path d="M268.185 410.281H481.358V380.837H268.185V410.281Z" fill="white"/>
<path d="M282.505 521.767H268.185V410.455H282.08V410.281H481.358V420.3H282.505V521.767Z" fill="#B4B5B3"/>
<path d="M268.185 410.455H282.08V410.281H268.185V410.455Z" fill="#999B99"/>
<path d="M286.436 320.422H283.123L289.167 307.787H292.503L286.436 320.422Z" fill="#8EB6CD"/>
<path d="M326.706 307.792H323.386L323.392 307.787H326.706V307.792Z" fill="#8EB6CD"/>
<path d="M320.645 320.422H317.325L323.386 307.792H326.706L320.645 320.422Z" fill="#57656D"/>
<path d="M290.628 521.767H345.823V537.654H538.672V570.421H202.641V537.654H290.628V521.767Z" fill="#585858"/>
<path d="M53.6499 139L56.501 145.028C59.1143 150.552 63.5252 155.025 69.0126 157.714L75 160.65L68.9724 163.501C63.4481 166.114 58.9752 170.525 56.2855 176.012L53.3508 182L50.4997 175.971C47.8865 170.448 43.4748 165.975 37.9881 163.286L32 160.35L38.0283 157.499C43.5526 154.886 48.0254 150.475 50.7145 144.988L53.6499 139Z" fill="#F5D21F"/>
<path d="M610.686 4.11699L612.628 8.15677C614.414 11.8585 617.395 14.845 621.094 16.6279L625.135 18.573L621.094 20.5182C617.395 22.3011 614.414 25.2868 612.628 28.9892L610.686 33.0283L608.736 28.9892C606.958 25.2868 603.969 22.3011 600.27 20.5182L596.229 18.573L600.27 16.6279C603.969 14.845 606.958 11.8585 608.736 8.15677L610.686 4.11699Z" fill="#F5D21F"/>
<path d="M657.042 4.11527L658.988 8.1552C660.771 11.8569 663.753 14.8435 667.452 16.6258L671.492 18.5711L667.452 20.5163C663.753 22.2986 660.771 25.2853 658.988 28.9869L657.042 33.0261L655.096 28.9869C653.313 25.2853 650.331 22.2986 646.624 20.5163L642.592 18.5711L646.624 16.6258C650.331 14.8435 653.313 11.8569 655.096 8.1552L657.042 4.11527Z" fill="#F5D21F"/>
<path d="M474.497 27.7381C469.399 27.7381 465.265 23.6016 465.265 18.4994C465.265 13.3965 469.399 9.26053 474.497 9.26053C479.601 9.26053 483.735 13.3965 483.735 18.4994C483.735 23.6016 479.601 27.7381 474.497 27.7381ZM474.497 0C464.282 0 456 8.28168 456 18.4994C456 28.717 464.282 37 474.497 37C484.718 37 493 28.717 493 18.4994C493 8.28168 484.718 0 474.497 0Z" fill="#0F4387"/>
<path d="M197 186C194.787 186 193 184.209 193 182C193 179.791 194.787 178 197 178C199.206 178 201 179.791 201 182C201 184.209 199.206 186 197 186Z" fill="#F5D21F"/>
<path d="M197 163C194.787 163 193 161.209 193 159C193 156.791 194.787 155 197 155C199.206 155 201 156.791 201 159C201 161.209 199.206 163 197 163Z" fill="#F5D21F"/>
<path d="M197 139C194.787 139 193 137.209 193 135C193 132.791 194.787 131 197 131C199.206 131 201 132.791 201 135C201 137.209 199.206 139 197 139Z" fill="#F5D21F"/>
<path d="M197 115C194.787 115 193 113.433 193 111.5C193 109.567 194.787 108 197 108C199.206 108 201 109.567 201 111.5C201 113.433 199.206 115 197 115Z" fill="#E8E8E8"/>
<path d="M197 92C194.787 92 193 90.209 193 87.9997C193 85.791 194.787 84 197 84C199.206 84 201 85.791 201 87.9997C201 90.209 199.206 92 197 92Z" fill="#E8E8E8"/>
<path d="M197 68C194.787 68 193 66.433 193 64.5C193 62.567 194.787 61 197 61C199.206 61 201 62.567 201 64.5C201 66.433 199.206 68 197 68Z" fill="#E8E8E8"/>
<path d="M176.003 186C173.792 186 172 184.209 172 182C172 179.791 173.792 178 176.003 178C178.208 178 180 179.791 180 182C180 184.209 178.208 186 176.003 186Z" fill="#F5D21F"/>
<path d="M176.003 163C173.792 163 172 161.209 172 159C172 156.791 173.792 155 176.003 155C178.208 155 180 156.791 180 159C180 161.209 178.208 163 176.003 163Z" fill="#F5D21F"/>
<path d="M176.003 139C173.792 139 172 137.209 172 135C172 132.791 173.792 131 176.003 131C178.208 131 180 132.791 180 135C180 137.209 178.208 139 176.003 139Z" fill="#F5D21F"/>
<path d="M176.003 115C173.792 115 172 113.433 172 111.5C172 109.567 173.792 108 176.003 108C178.208 108 180 109.567 180 111.5C180 113.433 178.208 115 176.003 115Z" fill="#E8E8E8"/>
<path d="M176.003 92C173.792 92 172 90.209 172 87.9997C172 85.791 173.792 84 176.003 84C178.208 84 180 85.791 180 87.9997C180 90.209 178.208 92 176.003 92Z" fill="#E8E8E8"/>
<path d="M176.003 68C173.792 68 172 66.433 172 64.5C172 62.567 173.792 61 176.003 61C178.208 61 180 62.567 180 64.5C180 66.433 178.208 68 176.003 68Z" fill="#E8E8E8"/>
<path d="M156 186C153.787 186 152 184.209 152 182C152 179.791 153.787 178 156 178C158.206 178 160 179.791 160 182C160 184.209 158.206 186 156 186Z" fill="#F5D21F"/>
<path d="M156 163C153.787 163 152 161.209 152 159C152 156.791 153.787 155 156 155C158.206 155 160 156.791 160 159C160 161.209 158.206 163 156 163Z" fill="#F5D21F"/>
<path d="M156 139C153.787 139 152 137.209 152 135C152 132.791 153.787 131 156 131C158.206 131 160 132.791 160 135C160 137.209 158.206 139 156 139Z" fill="#F5D21F"/>
<path d="M156 115C153.787 115 152 113.433 152 111.5C152 109.567 153.787 108 156 108C158.206 108 160 109.567 160 111.5C160 113.433 158.206 115 156 115Z" fill="#E8E8E8"/>
<path d="M156 92C153.787 92 152 90.209 152 87.9997C152 85.791 153.787 84 156 84C158.206 84 160 85.791 160 87.9997C160 90.209 158.206 92 156 92Z" fill="#E8E8E8"/>
<path d="M156 68C153.787 68 152 66.433 152 64.5C152 62.567 153.787 61 156 61C158.206 61 160 62.567 160 64.5C160 66.433 158.206 68 156 68Z" fill="#E8E8E8"/>
<path d="M134 186C131.787 186 130 184.209 130 182C130 179.791 131.787 178 134 178C136.206 178 138 179.791 138 182C138 184.209 136.206 186 134 186Z" fill="#F5D21F"/>
<path d="M134 163C131.787 163 130 161.209 130 159C130 156.791 131.787 155 134 155C136.206 155 138 156.791 138 159C138 161.209 136.206 163 134 163Z" fill="#F5D21F"/>
<path d="M134 139C131.787 139 130 137.209 130 135C130 132.791 131.787 131 134 131C136.206 131 138 132.791 138 135C138 137.209 136.206 139 134 139Z" fill="#F5D21F"/>
<path d="M134 115C131.787 115 130 113.433 130 111.5C130 109.567 131.787 108 134 108C136.206 108 138 109.567 138 111.5C138 113.433 136.206 115 134 115Z" fill="#E8E8E8"/>
<path d="M134 92C131.787 92 130 90.209 130 87.9997C130 85.791 131.787 84 134 84C136.206 84 138 85.791 138 87.9997C138 90.209 136.206 92 134 92Z" fill="#E8E8E8"/>
<path d="M134 68C131.787 68 130 66.433 130 64.5C130 62.567 131.787 61 134 61C136.206 61 138 62.567 138 64.5C138 66.433 136.206 68 134 68Z" fill="#E8E8E8"/>
</svg>
